<svg width="1158" height="1093" viewBox="0 0 1158 1093" fill="none" xmlns="http://www.w3.org/2000/svg">
<path d="M540.631 0C839.213 0.000164935 1081.26 242.049 1081.26 540.631C1081.26 643.968 1052.27 740.532 1001.97 822.636L1157.24 977.9L1042.14 1093L896.641 947.503C801.537 1030.79 676.979 1081.26 540.631 1081.26C242.049 1081.26 0.000165021 839.213 0 540.631C0 242.049 242.049 0 540.631 0Z" fill="#BCD7DE"/>
<circle cx="547.325" cy="539.292" r="424.208" fill="#301C1B"/>
<circle cx="541.971" cy="525.909" r="335.887" fill="#573722"/>
<circle cx="547.324" cy="533.941" r="231.508" fill="#FFEDAB"/>
<path d="M372.961 685V385.393H442.726L566.85 589.126H530.041L650.74 385.393H720.505L721.361 685H643.463L642.607 503.951H655.876L565.566 655.467H527.901L435.022 503.951H451.287V685H372.961Z" fill="#301C1B"/>
</svg>
