<svg width="372" height="857" viewBox="0 0 372 857" fill="none" xmlns="http://www.w3.org/2000/svg">
<path d="M375 806.432L119.668 806.434V566.677L139.447 479.489L199.677 422.842V314.903L119.668 222.172V-0.998535L375 -0.999512V806.432ZM159.379 376.456C146.944 385.07 132.064 398.8 119.668 416.444V284.039L159.379 376.456Z" fill="#573722"/>
<path d="M0 589.713H307.232L270.81 857H31.1344L0 589.713Z" fill="#573722"/>
<path d="M315.421 589.713H151.278V807.636H277.602L315.421 589.713Z" fill="#BCD7DE"/>
<path d="M80.3167 688.44H189.485L181.611 808.037H86.6226L80.3167 688.44Z" fill="#FFEDAB"/>
<path d="M0.000350952 589.713H237.832L220.677 709.31H13.7381L0.000350952 589.713Z" fill="#301C1B"/>
<path d="M120.241 567.535C78.8963 506.632 94.035 451.933 120.241 414.501C132.86 396.477 148.044 382.456 160.725 373.672L120.241 414.501L140.043 479.662L120.241 567.535Z" fill="#301C1B"/>
<rect x="263" y="89" width="109" height="430" fill="#301C1B"/>
<path d="M262.728 -1H372V91L262.728 317.541V-1Z" fill="#FFEDAB"/>
</svg>
