<svg width="715" height="1300" viewBox="0 0 715 1300" fill="none" xmlns="http://www.w3.org/2000/svg">
<line x1="130" y1="1299.5" x2="715" y2="1299.5" stroke="#FFEDAB"/>
<line x1="52" y1="2.5" x2="715" y2="2.5" stroke="#FFEDAB" stroke-width="5"/>
<line x1="83" y1="614.8" x2="715" y2="614.8" stroke="#FFEDAB" stroke-width="2.4"/>
<line x1="106" y1="767" x2="715" y2="767" stroke="#FFEDAB" stroke-width="2"/>
<line x1="197" y1="81.6" x2="715" y2="81.6" stroke="#FFEDAB" stroke-width="4.8"/>
<line x1="173" y1="157.7" x2="715" y2="157.7" stroke="#FFEDAB" stroke-width="4.6"/>
<line x1="173" y1="386.1" x2="715" y2="386.1" stroke="#FFEDAB" stroke-width="3.8"/>
<line x1="224" y1="690.9" x2="715" y2="690.9" stroke="#FFEDAB" stroke-width="2.2"/>
<line x1="162" y1="995.2" x2="715" y2="995.2" stroke="#FFEDAB" stroke-width="1.6"/>
<line x1="162" y1="1071.25" x2="715" y2="1071.25" stroke="#FFEDAB" stroke-width="1.5"/>
<line x1="240" y1="843.1" x2="715" y2="843.1" stroke="#FFEDAB" stroke-width="1.8"/>
<line x1="140" y1="462.25" x2="715" y2="462.25" stroke="#FFEDAB" stroke-width="3.5"/>
<line x1="12" y1="919.15" x2="715" y2="919.15" stroke="#FFEDAB" stroke-width="1.7"/>
<line x1="5.24537e-08" y1="1223.4" x2="715" y2="1223.4" stroke="#FFEDAB" stroke-width="1.2"/>
<line x1="318" y1="233.9" x2="715" y2="233.9" stroke="#FFEDAB" stroke-width="4.2"/>
<line x1="277" y1="538.5" x2="715" y2="538.5" stroke="#FFEDAB" stroke-width="3"/>
<line x1="290" y1="1147.3" x2="715" y2="1147.3" stroke="#FFEDAB" stroke-width="1.4"/>
<line x1="12" y1="310" x2="715" y2="310" stroke="#FFEDAB" stroke-width="4"/>
</svg>
