<svg width="1210" height="1445" viewBox="0 0 1210 1445" fill="none" xmlns="http://www.w3.org/2000/svg">
<rect x="5.5" y="5.5" width="1199" height="1434" rx="23.5" fill="#573722" stroke="#573722" stroke-width="11"/>
<line x1="417" y1="1384.5" x2="1002" y2="1384.5" stroke="#FFEDAB"/>
<line x1="339" y1="87.5" x2="1002" y2="87.5" stroke="#FFEDAB" stroke-width="5"/>
<line x1="370" y1="699.8" x2="1002" y2="699.8" stroke="#FFEDAB" stroke-width="2.4"/>
<line x1="393" y1="852" x2="1002" y2="852" stroke="#FFEDAB" stroke-width="2"/>
<line x1="484" y1="166.6" x2="1002" y2="166.6" stroke="#FFEDAB" stroke-width="4.8"/>
<line x1="460" y1="242.7" x2="1002" y2="242.7" stroke="#FFEDAB" stroke-width="4.6"/>
<line x1="460" y1="471.1" x2="1002" y2="471.1" stroke="#FFEDAB" stroke-width="3.8"/>
<line x1="511" y1="775.9" x2="1002" y2="775.9" stroke="#FFEDAB" stroke-width="2.2"/>
<line x1="449" y1="1080.2" x2="1002" y2="1080.2" stroke="#FFEDAB" stroke-width="1.6"/>
<line x1="449" y1="1156.25" x2="1002" y2="1156.25" stroke="#FFEDAB" stroke-width="1.5"/>
<line x1="527" y1="928.1" x2="1002" y2="928.1" stroke="#FFEDAB" stroke-width="1.8"/>
<line x1="427" y1="547.25" x2="1002" y2="547.25" stroke="#FFEDAB" stroke-width="3.5"/>
<line x1="299" y1="1004.15" x2="1002" y2="1004.15" stroke="#FFEDAB" stroke-width="1.7"/>
<line x1="287" y1="1308.4" x2="1002" y2="1308.4" stroke="#FFEDAB" stroke-width="1.2"/>
<line x1="605" y1="318.9" x2="1002" y2="318.9" stroke="#FFEDAB" stroke-width="4.2"/>
<line x1="564" y1="623.5" x2="1002" y2="623.5" stroke="#FFEDAB" stroke-width="3"/>
<line x1="577" y1="1232.3" x2="1002" y2="1232.3" stroke="#FFEDAB" stroke-width="1.4"/>
<line x1="299" y1="395" x2="1002" y2="395" stroke="#FFEDAB" stroke-width="4"/>
</svg>
