<svg width="1440" height="978" viewBox="0 0 1440 978" fill="none" xmlns="http://www.w3.org/2000/svg">
<g clip-path="url(#clip0_232_29)">
<rect width="1440" height="978" fill="#FFEDAB"/>
<rect x="-43" y="688" width="1565" height="335" fill="#301C1B"/>
<rect x="-23" y="727" width="469" height="91" fill="#573722"/>
<rect x="405.493" y="121.145" width="108.404" height="48.3423" rx="24.1712" transform="rotate(90 405.493 121.145)" fill="#301C1B"/>
<circle cx="380.954" cy="116.384" r="41.3839" fill="#573722"/>
<rect x="228.971" y="170.952" width="301.041" height="71.0486" rx="35.5243" fill="#573722"/>
<rect x="215.787" y="206.843" width="327.409" height="549.345" fill="#301C1B"/>
<rect x="450.905" y="265.439" width="62.9915" height="317.155" fill="#FFEDAB"/>
<path d="M92 576.002V372.378C92 324.644 130.696 285.948 178.43 285.948V327.698C153.754 327.698 133.75 347.702 133.75 372.378V576.002C133.75 600.678 153.754 620.682 178.43 620.682H305.146C329.822 620.682 349.826 600.678 349.826 576.002V372.378C349.826 347.702 329.822 327.698 305.146 327.698V285.948C352.88 285.948 391.576 324.644 391.576 372.378V576.002C391.576 623.736 352.88 662.432 305.146 662.432H178.43C130.696 662.432 92 623.736 92 576.002ZM305.146 285.948V327.698H178.43V285.948H305.146Z" fill="#301C1B"/>
<rect x="349.826" y="265.439" width="62.9915" height="317.155" fill="#FFEDAB"/>
<rect x="248.747" y="260.312" width="62.9915" height="317.155" fill="#FFEDAB"/>
<rect x="248.747" y="485.177" width="62.9915" height="161.141" fill="#573722"/>
<rect x="349.826" y="545.239" width="62.9915" height="101.079" fill="#573722"/>
<rect x="450.905" y="485.177" width="62.9915" height="171.395" fill="#573722"/>
<path d="M411.968 757.196C354.401 781.331 326.979 823.123 314.293 852.405C307.028 869.173 320.367 885.368 338.641 885.368H439.466L411.968 757.196Z" fill="#573722"/>
<path d="M823.345 757.196C880.912 781.331 908.334 823.123 921.02 852.405C928.285 869.173 914.946 885.368 896.672 885.368H795.847L823.345 757.196Z" fill="#573722"/>
<path d="M834.895 776.995C869.356 791.426 888.385 814.886 898.728 834.182C907.361 850.29 894.102 866.611 875.826 866.611H815.646L834.895 776.995Z" fill="#FFEDAB"/>
<path d="M399.377 776.995C364.916 791.426 345.887 814.886 335.544 834.182C326.911 850.29 340.17 866.611 358.446 866.611H418.626L399.377 776.995Z" fill="#FFEDAB"/>
<path d="M406.121 743.967L435.803 889.952C437.603 898.805 445.388 905.167 454.422 905.167H584.311L550.406 703.009C499.925 704.512 406.121 743.967 406.121 743.967Z" fill="#573722"/>
<path d="M430.088 742.367L450.956 845.139C452.754 853.995 460.54 860.359 469.576 860.359H560.344L535.56 712.388C498.659 713.488 430.088 742.367 430.088 742.367Z" fill="#FFEDAB"/>
<path d="M828.15 743.967L798.647 889.931C796.855 898.794 789.066 905.167 780.023 905.167H651.002L684.709 703.009C734.895 704.512 828.15 743.967 828.15 743.967Z" fill="#573722"/>
<path d="M815.645 742.367L794.777 845.139C792.979 853.995 785.193 860.359 776.157 860.359H685.389L710.173 712.388C747.075 713.488 815.645 742.367 815.645 742.367Z" fill="#FFEDAB"/>
<path d="M539.503 687.61L575.259 898.516C577.134 909.577 586.716 917.671 597.935 917.671H658.335C670.862 917.671 681.085 907.646 681.33 895.121L685.39 687.61C624.689 673.97 593.204 675.65 539.503 687.61Z" fill="#573722"/>
<path d="M560 703.333L576.671 811.503C578.4 822.721 588.053 831 599.403 831H637.874C650.058 831 660.128 821.499 660.836 809.335L667 703.333C620.815 695.764 600.859 696.696 560 703.333Z" fill="#FFEDAB"/>
</g>
<defs>
<clipPath id="clip0_232_29">
<rect width="1440" height="978" fill="white"/>
</clipPath>
</defs>
</svg>
