<svg width="1440" height="94" viewBox="0 0 1440 94" fill="none" xmlns="http://www.w3.org/2000/svg">
<rect x="832" width="92" height="92" rx="46" fill="#FFEDAB"/>
<path d="M863.508 34.0208H870.525V53.7821L887.087 34.0208H893.487V63.9996H886.469V44.2383L869.964 63.9996H863.508V34.0208ZM878.048 30.484C875.017 30.484 872.696 29.7916 871.087 28.4068C869.515 26.9846 868.71 24.9262 868.673 22.2314H873.332C873.37 23.5788 873.781 24.6455 874.567 25.4314C875.391 26.2174 876.532 26.6104 877.992 26.6104C879.414 26.6104 880.537 26.2174 881.36 25.4314C882.221 24.6455 882.67 23.5788 882.708 22.2314H887.48C887.442 24.9262 886.619 26.9846 885.009 28.4068C883.4 29.7916 881.08 30.484 878.048 30.484Z" fill="#301C1B"/>
<rect x="322" width="92" height="92" rx="46" fill="#FFEDAB"/>
<path d="M375.082 46.3932C376.953 46.9172 378.394 47.778 379.405 48.9757C380.452 50.1359 380.976 51.5394 380.976 53.1862C380.976 55.0201 380.359 56.6481 379.124 58.0703C377.889 59.4551 376.186 60.5405 374.015 61.3265C371.844 62.1124 369.374 62.5054 366.605 62.5054C364.284 62.5054 362.02 62.2434 359.812 61.7194C357.603 61.158 355.601 60.3721 353.805 59.3616L355.826 54.1405C357.285 54.9639 358.932 55.6002 360.766 56.0493C362.6 56.4984 364.434 56.723 366.268 56.723C368.626 56.723 370.46 56.3674 371.769 55.6563C373.117 54.9078 373.791 53.8973 373.791 52.6248C373.791 51.4645 373.267 50.5663 372.219 49.93C371.208 49.2938 369.767 48.9757 367.896 48.9757H362.057V44.2599H367.334C369.093 44.2599 370.46 43.9605 371.433 43.3617C372.443 42.7628 372.948 41.9207 372.948 40.8354C372.948 39.75 372.35 38.8892 371.152 38.2529C369.954 37.6167 368.308 37.2985 366.212 37.2985C363.217 37.2985 360.055 38.0284 356.724 39.488L354.927 34.3231C358.857 32.4892 362.825 31.5723 366.829 31.5723C369.374 31.5723 371.657 31.9278 373.678 32.6389C375.699 33.3126 377.271 34.2857 378.394 35.5582C379.554 36.7933 380.134 38.2155 380.134 39.8248C380.134 41.2845 379.685 42.5944 378.787 43.7546C377.889 44.8774 376.654 45.757 375.082 46.3932Z" fill="#301C1B"/>
<rect x="934" width="92" height="92" rx="46" fill="#FFEDAB"/>
<path d="M980.326 49.9863H974.881V62.0002H967.863V32.0215H974.881V44.1477H980.495L989.365 32.0215H996.888L985.997 46.4495L997.617 62.0002H989.365L980.326 49.9863Z" fill="#301C1B"/>
<rect x="424" width="92" height="92" rx="46" fill="#FFEDAB"/>
<path d="M469.996 62.3932C467.564 62.3932 465.187 62.075 462.866 61.4388C460.546 60.8025 458.693 59.9978 457.309 59.0248L460.003 53.6915C461.351 54.5897 462.96 55.3195 464.831 55.8809C466.74 56.4049 468.611 56.6669 470.445 56.6669C474.637 56.6669 476.733 55.5628 476.733 53.3546C476.733 52.3067 476.19 51.5768 475.105 51.1652C474.057 50.7535 472.354 50.3605 469.996 49.9862C467.526 49.6119 465.505 49.1815 463.933 48.695C462.399 48.2084 461.051 47.3663 459.891 46.1687C458.768 44.9336 458.207 43.2307 458.207 41.0599C458.207 38.2155 459.386 35.9512 461.744 34.267C464.139 32.5454 467.358 31.6846 471.4 31.6846C473.458 31.6846 475.517 31.9278 477.575 32.4144C479.634 32.8635 481.318 33.481 482.628 34.267L479.933 39.6003C477.388 38.1032 474.525 37.3547 471.344 37.3547C469.285 37.3547 467.713 37.6728 466.628 38.3091C465.58 38.9079 465.056 39.7126 465.056 40.7231C465.056 41.8459 465.617 42.6506 466.74 43.1371C467.9 43.5863 469.678 44.0167 472.073 44.4284C474.469 44.8026 476.434 45.233 477.968 45.7196C479.503 46.2061 480.813 47.0295 481.898 48.1897C483.021 49.35 483.582 50.9967 483.582 53.1301C483.582 55.937 482.366 58.1827 479.933 59.8669C477.5 61.5511 474.188 62.3932 469.996 62.3932Z" fill="#301C1B"/>
<rect x="526" width="92" height="92" rx="46" fill="#FFEDAB"/>
<path d="M557.508 32.0215H564.525V51.7828L581.087 32.0215H587.487V62.0002H580.469V42.239L563.964 62.0002H557.508V32.0215Z" fill="#301C1B"/>
<rect x="628" width="92" height="92" rx="46" fill="#FFEDAB"/>
<path d="M670.966 38.0215H677.984V68.0002H670.966V38.0215ZM674.503 33.0812C673.23 33.0812 672.164 32.6882 671.303 31.9022C670.442 31.0788 670.012 30.0683 670.012 28.8707C670.012 27.673 670.442 26.6812 671.303 25.8952C672.164 25.0718 673.23 24.6602 674.503 24.6602C675.775 24.6602 676.842 25.0531 677.703 25.8391C678.564 26.5876 678.994 27.542 678.994 28.7022C678.994 29.9373 678.564 30.9853 677.703 31.8461C676.88 32.6695 675.813 33.0812 674.503 33.0812Z" fill="#301C1B"/>
<rect x="730" width="92" height="92" rx="46" fill="#FFEDAB"/>
<path d="M772.49 35.0209H779.507V64.9997H772.49V35.0209ZM771.76 30.249C770.824 30.249 770.038 29.9496 769.402 29.3508C768.803 28.7145 768.504 27.9099 768.504 26.9368C768.504 25.9637 768.803 25.159 769.402 24.5227C770.038 23.8865 770.824 23.5684 771.76 23.5684C772.658 23.5684 773.407 23.8865 774.006 24.5227C774.642 25.159 774.96 25.9637 774.96 26.9368C774.96 27.8724 774.642 28.6584 774.006 29.2946C773.407 29.9309 772.658 30.249 771.76 30.249ZM780.349 30.249C779.414 30.249 778.628 29.9309 777.992 29.2946C777.393 28.6584 777.093 27.8724 777.093 26.9368C777.093 25.9637 777.393 25.159 777.992 24.5227C778.628 23.8865 779.414 23.5684 780.349 23.5684C781.285 23.5684 782.052 23.8865 782.651 24.5227C783.25 25.159 783.549 25.9637 783.549 26.9368C783.549 27.9099 783.25 28.7145 782.651 29.3508C782.052 29.9496 781.285 30.249 780.349 30.249Z" fill="#301C1B"/>
<rect x="1066" y="1" width="92" height="92" rx="46" fill="#FFEDAB"/>
<path d="M1126.08 33.0215V63.0002H1119.06V38.9723H1107.83L1107.55 44.9232C1107.36 48.8904 1106.99 52.2214 1106.43 54.9161C1105.9 57.5734 1104.99 59.688 1103.68 61.2599C1102.4 62.7944 1100.64 63.5616 1098.4 63.5616C1097.35 63.5616 1096.06 63.3558 1094.53 62.9441L1094.86 57.0494C1095.39 57.1617 1095.84 57.2178 1096.21 57.2178C1097.63 57.2178 1098.7 56.6564 1099.41 55.5336C1100.12 54.3734 1100.57 53.0073 1100.76 51.4354C1100.98 49.8261 1101.17 47.543 1101.32 44.5863L1101.82 33.0215H1126.08Z" fill="#301C1B"/>
<rect x="1168" y="1" width="92" height="92" rx="46" fill="#FFEDAB"/>
<path d="M1221.27 31.0215V61.0002H1214.25V36.9723H1203.02L1202.74 42.9232C1202.56 46.8904 1202.18 50.2214 1201.62 52.9161C1201.1 55.5734 1200.18 57.688 1198.87 59.2599C1197.6 60.7944 1195.84 61.5616 1193.59 61.5616C1192.54 61.5616 1191.25 61.3558 1189.72 60.9441L1190.06 55.0494C1190.58 55.1617 1191.03 55.2178 1191.4 55.2178C1192.83 55.2178 1193.89 54.6564 1194.6 53.5336C1195.31 52.3734 1195.76 51.0073 1195.95 49.4354C1196.17 47.8261 1196.36 45.543 1196.51 42.5863L1197.02 31.0215H1221.27ZM1229.3 40.9021C1233.11 40.9021 1236.03 41.7629 1238.06 43.4846C1240.11 45.2062 1241.14 47.6389 1241.14 50.7828C1241.14 54.0763 1240.02 56.6213 1237.77 58.4178C1235.53 60.2143 1232.37 61.0938 1228.29 61.0564L1214.25 61.0002V31.0215H1221.27V40.846L1229.3 40.9021ZM1227.67 55.8915C1229.73 55.9289 1231.3 55.4985 1232.39 54.6003C1233.47 53.702 1234.01 52.3921 1234.01 50.6705C1234.01 48.9863 1233.49 47.7512 1232.44 46.9652C1231.39 46.1793 1229.8 45.7676 1227.67 45.7302L1221.27 45.674V55.8354L1227.67 55.8915Z" fill="#301C1B"/>
<rect x="1270" y="1" width="92" height="92" rx="46" fill="#FFEDAB"/>
<path d="M1328.08 63.0002V43.1267L1317.97 59.8564H1314.94L1305 43.0705V63.0002H1298.6V33.0215H1305.96L1316.62 51.7722L1327.79 33.0215H1334.36L1334.42 63.0002H1328.08Z" fill="#301C1B"/>
<rect x="1372" y="1" width="92" height="92" rx="46" fill="#FFEDAB"/>
<path d="M1403.95 33.0215H1410.96V45.2039H1426.06V33.0215H1433.08V63.0002H1426.06V51.1547H1410.96V63.0002H1403.95V33.0215Z" fill="#301C1B"/>
<rect x="-14" width="92" height="92" rx="46" fill="#FFEDAB"/>
<path d="M44.156 31.0215V61.0002H37.8683V51.9617H29.9526L23.8333 61.0002H16.3105L23.3842 51.0073C21.2134 50.2588 19.548 49.1173 18.3877 47.5828C17.2649 46.0109 16.7035 44.0834 16.7035 41.8004C16.7035 38.3571 17.9199 35.6998 20.3526 33.8285C22.7854 31.9572 26.135 31.0215 30.4017 31.0215H44.156ZM30.6262 36.9162C26.0976 36.9162 23.8333 38.6191 23.8333 42.0249C23.8333 45.3933 26.0228 47.0775 30.4017 47.0775H37.8683V36.9162H30.6262Z" fill="#301C1B"/>
<rect x="88" width="92" height="92" rx="46" fill="#FFEDAB"/>
<path d="M144.241 58.905H124.592L120.718 67.9997H113.195L130.879 28.7017H138.065L155.806 67.9997H148.171L144.241 58.905ZM141.827 53.1787L134.416 35.9999L127.062 53.1787H141.827ZM134.472 25.8947C131.74 25.8947 129.457 25.1649 127.623 23.7052C125.827 22.2456 124.872 20.2807 124.76 17.8105H129.364C129.401 19.0831 129.906 20.1123 130.879 20.8982C131.853 21.6468 133.05 22.021 134.472 22.021C135.895 22.021 137.092 21.6468 138.065 20.8982C139.038 20.1123 139.544 19.0831 139.581 17.8105H144.185C144.072 20.2807 143.099 22.2456 141.265 23.7052C139.469 25.1649 137.205 25.8947 134.472 25.8947Z" fill="#301C1B"/>
<rect x="190" width="92" height="92" rx="46" fill="#FFEDAB"/>
<path d="M246.241 58.905H226.592L222.718 67.9997H215.195L232.879 28.7017H240.065L257.806 67.9997H250.171L246.241 58.905ZM243.827 53.1787L236.416 35.9999L229.062 53.1787H243.827ZM241.413 25.5017L236.472 21.3474L231.532 25.5017H225.75L233.272 17.8105H239.672L247.195 25.5017H241.413Z" fill="#301C1B"/>
</svg>
