<svg width="1440" height="95" viewBox="0 0 1440 95" fill="none" xmlns="http://www.w3.org/2000/svg">
<rect x="368" y="3" width="92" height="92" rx="46" fill="#FFEDAB"/>
<path d="M429.946 64.8804V70.9997H400.473V31.7017H429.16V37.821H407.771V48.0384H426.746V54.0454H407.771V64.8804H429.946ZM419.841 28.5017L414.901 24.3474L409.96 28.5017H404.178L411.701 20.8105H418.101L425.623 28.5017H419.841Z" fill="#301C1B"/>
<rect x="878" y="3" width="92" height="92" rx="46" fill="#FFEDAB"/>
<path d="M923.006 37.683C927.422 37.683 930.791 38.7497 933.111 40.883C935.469 42.9789 936.648 46.1602 936.648 50.4268V67.9986H930.023V64.3495C929.162 65.6595 927.927 66.67 926.318 67.3811C924.746 68.0548 922.837 68.3916 920.592 68.3916C918.346 68.3916 916.381 68.0173 914.697 67.2688C913.013 66.4828 911.703 65.4162 910.767 64.0688C909.869 62.684 909.42 61.1308 909.42 59.4092C909.42 56.7145 910.412 54.5625 912.395 52.9531C914.416 51.3063 917.579 50.4829 921.883 50.4829H929.63V50.0338C929.63 47.9379 928.994 46.3286 927.722 45.2058C926.486 44.083 924.634 43.5216 922.164 43.5216C920.48 43.5216 918.814 43.7836 917.167 44.3075C915.558 44.8315 914.192 45.5613 913.069 46.497L910.318 41.3883C911.89 40.1906 913.78 39.2737 915.988 38.6374C918.196 38.0012 920.536 37.683 923.006 37.683ZM922.051 63.2829C923.81 63.2829 925.364 62.8899 926.711 62.1039C928.096 61.2805 929.069 60.1203 929.63 58.6232V55.1426H922.388C918.346 55.1426 916.325 56.4712 916.325 59.1285C916.325 60.401 916.83 61.4115 917.841 62.1601C918.851 62.9086 920.255 63.2829 922.051 63.2829ZM928.564 33.9216L923.623 29.7673L918.683 33.9216H912.901L920.423 26.2305H926.823L934.346 33.9216H928.564Z" fill="#301C1B"/>
<rect x="470" y="3" width="92" height="92" rx="46" fill="#FFEDAB"/>
<path d="M516.005 71.5611C512 71.5611 508.388 70.7003 505.17 68.9787C501.951 67.2196 499.425 64.8056 497.591 61.7366C495.757 58.6302 494.84 55.1682 494.84 51.3507C494.84 47.5332 495.757 44.0899 497.591 41.0209C499.425 37.9145 501.951 35.5005 505.17 33.7789C508.388 32.0198 512 31.1403 516.005 31.1403C520.009 31.1403 523.621 32.0198 526.84 33.7789C530.058 35.5005 532.585 37.8958 534.419 40.9648C536.252 44.0338 537.169 47.4958 537.169 51.3507C537.169 55.2057 536.252 58.6676 534.419 61.7366C532.585 64.8056 530.058 67.2196 526.84 68.9787C523.621 70.7003 520.009 71.5611 516.005 71.5611ZM516.005 65.1611C518.624 65.1611 520.982 64.581 523.078 63.4208C525.174 62.2232 526.821 60.5764 528.019 58.4805C529.216 56.3472 529.815 53.9706 529.815 51.3507C529.815 48.7308 529.216 46.373 528.019 44.2771C526.821 42.1437 525.174 40.497 523.078 39.3368C520.982 38.1391 518.624 37.5403 516.005 37.5403C513.385 37.5403 511.027 38.1391 508.931 39.3368C506.835 40.497 505.188 42.1437 503.991 44.2771C502.793 46.373 502.194 48.7308 502.194 51.3507C502.194 53.9706 502.793 56.3472 503.991 58.4805C505.188 60.5764 506.835 62.2232 508.931 63.4208C511.027 64.581 513.385 65.1611 516.005 65.1611ZM520.945 28.5017L516.005 24.3474L511.064 28.5017H505.282L512.805 20.8105H519.205L526.727 28.5017H520.945Z" fill="#301C1B"/>
<rect x="572" y="3" width="92" height="92" rx="46" fill="#FFEDAB"/>
<path d="M631.54 33.9683C633.748 35.7274 635.488 37.9543 636.761 40.649C638.033 43.3063 638.669 46.2069 638.669 49.3507C638.669 53.2056 637.752 56.6676 635.919 59.7366C634.085 62.8056 631.558 65.2196 628.34 66.9787C625.121 68.7003 621.509 69.5611 617.505 69.5611C613.5 69.5611 609.888 68.7003 606.67 66.9787C603.451 65.2196 600.925 62.8056 599.091 59.7366C597.257 56.6302 596.34 53.1682 596.34 49.3507C596.34 45.4958 597.257 42.0338 599.091 38.9648C600.962 35.8958 603.526 33.5005 606.782 31.7789C610.038 30.0198 613.706 29.1403 617.785 29.1403C619.507 29.1403 621.603 29.29 624.073 29.5894C626.019 29.814 627.423 29.9263 628.284 29.9263C629.893 29.9263 631.128 29.6081 631.989 28.9719C632.85 28.2982 633.28 27.3251 633.28 26.0526C633.28 24.8924 632.906 23.7321 632.157 22.5719L636.424 21C637.547 22.5719 638.108 24.331 638.108 26.2772C638.108 28.3356 637.528 30.0198 636.368 31.3298C635.245 32.6397 633.636 33.5192 631.54 33.9683ZM617.505 63.1611C620.124 63.1611 622.482 62.5623 624.578 61.3647C626.674 60.167 628.321 58.5202 629.519 56.4243C630.716 54.3284 631.315 51.9706 631.315 49.3507C631.315 46.7308 630.716 44.373 629.519 42.2771C628.321 40.1812 626.674 38.5344 624.578 37.3367C622.482 36.1391 620.124 35.5403 617.505 35.5403C614.885 35.5403 612.527 36.1391 610.431 37.3367C608.335 38.497 606.688 40.1437 605.491 42.2771C604.293 44.373 603.694 46.7308 603.694 49.3507C603.694 51.9706 604.293 54.3472 605.491 56.4805C606.688 58.5764 608.335 60.2231 610.431 61.4208C612.527 62.581 614.885 63.1611 617.505 63.1611Z" fill="#301C1B"/>
<rect x="674" y="3" width="92" height="92" rx="46" fill="#FFEDAB"/>
<path d="M719.753 71.5616C714.326 71.5616 710.096 70.0458 707.065 67.0143C704.033 63.9453 702.518 59.5664 702.518 53.8775V31.7022H709.816V53.5968C709.816 61.3067 713.147 65.1616 719.809 65.1616C726.433 65.1616 729.745 61.3067 729.745 53.5968V31.7022H736.931V53.8775C736.931 59.5664 735.416 63.9453 732.384 67.0143C729.39 70.0458 725.179 71.5616 719.753 71.5616ZM733.282 31.7022H734.461C735.547 31.7022 736.389 31.3841 736.988 30.7478C737.624 30.0741 737.942 29.1946 737.942 28.1092C737.942 26.7993 737.568 25.6391 736.819 24.6286L741.142 23.0566C742.265 24.4789 742.826 26.2379 742.826 28.3338C742.826 30.9162 742.078 32.956 740.58 34.4531C739.083 35.9501 737.025 36.6987 734.405 36.6987H733.282V31.7022Z" fill="#301C1B"/>
<rect x="776" y="3" width="92" height="92" rx="46" fill="#FFEDAB"/>
<path d="M821.006 38.683C825.422 38.683 828.791 39.7497 831.111 41.883C833.469 43.9789 834.648 47.1602 834.648 51.4268V68.9986H828.023V65.3495C827.162 66.6595 825.927 67.67 824.318 68.3811C822.746 69.0548 820.837 69.3916 818.592 69.3916C816.346 69.3916 814.381 69.0173 812.697 68.2688C811.013 67.4828 809.703 66.4162 808.767 65.0688C807.869 63.684 807.42 62.1308 807.42 60.4092C807.42 57.7145 808.412 55.5625 810.395 53.9531C812.416 52.3063 815.579 51.4829 819.883 51.4829H827.63V51.0338C827.63 48.9379 826.994 47.3286 825.722 46.2058C824.486 45.083 822.634 44.5216 820.164 44.5216C818.48 44.5216 816.814 44.7836 815.167 45.3075C813.558 45.8315 812.192 46.5613 811.069 47.497L808.318 42.3883C809.89 41.1906 811.78 40.2737 813.988 39.6374C816.196 39.0012 818.536 38.683 821.006 38.683ZM820.051 64.2829C821.81 64.2829 823.364 63.8899 824.711 63.1039C826.096 62.2805 827.069 61.1203 827.63 59.6232V56.1426H820.388C816.346 56.1426 814.325 57.4712 814.325 60.1285C814.325 61.401 814.83 62.4115 815.841 63.1601C816.851 63.9086 818.255 64.2829 820.051 64.2829ZM821.623 35.3146C818.891 35.3146 816.608 34.5848 814.774 33.1252C812.978 31.6655 812.023 29.7006 811.911 27.2305H816.515C816.552 28.503 817.057 29.5322 818.03 30.3182C819.003 31.0667 820.201 31.441 821.623 31.441C823.046 31.441 824.243 31.0667 825.216 30.3182C826.189 29.5322 826.695 28.503 826.732 27.2305H831.336C831.223 29.7006 830.25 31.6655 828.416 33.1252C826.62 34.5848 824.355 35.3146 821.623 35.3146Z" fill="#301C1B"/>
<rect x="980" width="92" height="92" rx="46" fill="#FFEDAB"/>
<path d="M1041.32 49.1777C1041.32 49.6642 1041.29 50.3566 1041.21 51.2548H1017.69C1018.1 53.463 1019.17 55.2221 1020.89 56.532C1022.65 57.8045 1024.82 58.4408 1027.4 58.4408C1030.7 58.4408 1033.41 57.3554 1035.54 55.1847L1039.3 59.5074C1037.96 61.1168 1036.25 62.3331 1034.19 63.1565C1032.14 63.9799 1029.82 64.3916 1027.23 64.3916C1023.94 64.3916 1021.04 63.7366 1018.53 62.4267C1016.02 61.1168 1014.08 59.3016 1012.69 56.9811C1011.35 54.6232 1010.67 51.966 1010.67 49.0092C1010.67 46.09 1011.33 43.4701 1012.64 41.1496C1013.98 38.7918 1015.84 36.9579 1018.19 35.6479C1020.55 34.338 1023.21 33.683 1026.17 33.683C1029.09 33.683 1031.69 34.338 1033.97 35.6479C1036.29 36.9204 1038.09 38.7356 1039.36 41.0935C1040.67 43.414 1041.32 46.1087 1041.32 49.1777ZM1026.17 39.297C1023.92 39.297 1022.01 39.9707 1020.44 41.3181C1018.91 42.628 1017.97 44.3871 1017.63 46.5952H1034.64C1034.34 44.4245 1033.43 42.6654 1031.89 41.3181C1030.36 39.9707 1028.45 39.297 1026.17 39.297ZM1030.94 29.9216L1026 25.7673L1021.06 29.9216H1015.28L1022.8 22.2305H1029.2L1036.72 29.9216H1030.94Z" fill="#301C1B"/>
<rect x="1112" y="1" width="92" height="92" rx="46" fill="#FFEDAB"/>
<path d="M1158.48 65.3916C1155.45 65.3916 1152.72 64.7366 1150.29 63.4267C1147.86 62.1168 1145.95 60.3016 1144.56 57.9811C1143.21 55.6232 1142.54 52.966 1142.54 50.0092C1142.54 47.0525 1143.21 44.414 1144.56 42.0935C1145.95 39.7731 1147.86 37.9579 1150.29 36.6479C1152.72 35.338 1155.45 34.683 1158.48 34.683C1161.55 34.683 1164.3 35.338 1166.74 36.6479C1169.17 37.9579 1171.06 39.7731 1172.41 42.0935C1173.79 44.414 1174.48 47.0525 1174.48 50.0092C1174.48 52.966 1173.79 55.6232 1172.41 57.9811C1171.06 60.3016 1169.17 62.1168 1166.74 63.4267C1164.3 64.7366 1161.55 65.3916 1158.48 65.3916ZM1158.48 59.3846C1161.07 59.3846 1163.2 58.5238 1164.88 56.8022C1166.57 55.0806 1167.41 52.8162 1167.41 50.0092C1167.41 47.2022 1166.57 44.9379 1164.88 43.2163C1163.2 41.4947 1161.07 40.6339 1158.48 40.6339C1155.9 40.6339 1153.77 41.4947 1152.08 43.2163C1150.44 44.9379 1149.61 47.2022 1149.61 50.0092C1149.61 52.8162 1150.44 55.0806 1152.08 56.8022C1153.77 58.5238 1155.9 59.3846 1158.48 59.3846ZM1163.37 30.9216L1158.43 26.7673L1153.49 30.9216H1147.71L1155.23 23.2305H1161.63L1169.15 30.9216H1163.37Z" fill="#301C1B"/>
<rect x="1214" y="1" width="92" height="92" rx="46" fill="#FFEDAB"/>
<path d="M1271.54 38.615C1273.12 39.9998 1274.33 41.6652 1275.19 43.6114C1276.05 45.5576 1276.48 47.6909 1276.48 50.0114C1276.48 52.9681 1275.79 55.6254 1274.41 57.9833C1273.06 60.3037 1271.17 62.1189 1268.74 63.4289C1266.3 64.7388 1263.55 65.3938 1260.48 65.3938C1257.45 65.3938 1254.72 64.7388 1252.29 63.4289C1249.86 62.1189 1247.95 60.3037 1246.56 57.9833C1245.21 55.6254 1244.54 52.9681 1244.54 50.0114C1244.54 47.0547 1245.23 44.4161 1246.62 42.0957C1248 39.7752 1249.91 37.96 1252.34 36.6501C1254.78 35.3401 1257.53 34.6852 1260.6 34.6852C1261.68 34.6852 1262.94 34.76 1264.36 34.9097C1264.66 34.9472 1265.09 34.9846 1265.65 35.022C1266.25 35.0594 1266.79 35.0781 1267.28 35.0781C1268.55 35.0781 1269.52 34.7413 1270.2 34.0676C1270.87 33.3565 1271.21 32.4583 1271.21 31.3729C1271.21 30.1753 1270.81 29.015 1270.03 27.8922L1274.3 26.3203C1275.46 27.9297 1276.04 29.6887 1276.04 31.5975C1276.04 33.2442 1275.64 34.6665 1274.86 35.8641C1274.07 37.0618 1272.97 37.9787 1271.54 38.615ZM1260.48 59.3868C1263.07 59.3868 1265.2 58.526 1266.88 56.8043C1268.57 55.0827 1269.41 52.8184 1269.41 50.0114C1269.41 47.2044 1268.57 44.9401 1266.88 43.2185C1265.2 41.4968 1263.07 40.636 1260.48 40.636C1257.9 40.636 1255.77 41.4968 1254.08 43.2185C1252.44 44.9401 1251.61 47.2044 1251.61 50.0114C1251.61 52.8184 1252.44 55.0827 1254.08 56.8043C1255.77 58.526 1257.9 59.3868 1260.48 59.3868Z" fill="#301C1B"/>
<rect x="1316" y="1" width="92" height="92" rx="46" fill="#FFEDAB"/>
<path d="M1376.19 35.0206V64.9993H1369.51V61.1818C1368.39 62.5292 1366.99 63.5771 1365.3 64.3256C1363.62 65.0367 1361.8 65.3923 1359.86 65.3923C1355.85 65.3923 1352.69 64.2882 1350.37 62.08C1348.08 59.8344 1346.94 56.5222 1346.94 52.1433V35.0206H1353.96V51.1889C1353.96 53.8836 1354.56 55.9046 1355.76 57.252C1356.99 58.5619 1358.73 59.2169 1360.98 59.2169C1363.49 59.2169 1365.47 58.4497 1366.93 56.9152C1368.43 55.3432 1369.17 53.0976 1369.17 50.1784V35.0206H1376.19ZM1371.64 35.0206H1372.82C1373.91 35.0206 1374.75 34.7024 1375.35 34.0662C1375.99 33.3925 1376.3 32.513 1376.3 31.4276C1376.3 30.1177 1375.93 28.9574 1375.18 27.9469L1379.5 26.375C1380.63 27.7972 1381.19 29.5563 1381.19 31.6522C1381.19 34.2346 1380.44 36.2744 1378.94 37.7714C1377.45 39.2685 1375.39 40.017 1372.77 40.017H1371.64V35.0206Z" fill="#301C1B"/>
<rect x="1418" y="1" width="92" height="92" rx="46" fill="#FFEDAB"/>
<rect x="32" width="92" height="92" rx="46" fill="#FFEDAB"/>
<path d="M88.3523 43.7541V49.4804H86.4435C85.6575 49.4804 85.04 49.705 84.5909 50.1541C84.1792 50.6032 83.9733 51.2769 83.9733 52.1751V63.74C83.9733 66.7341 83.15 68.9984 81.5032 70.5329C79.8938 72.1048 77.5172 72.8908 74.3734 72.8908H71.5664V67.2768H72.7453C74.1676 67.2768 75.2155 66.9025 75.8892 66.154C76.6003 65.4429 76.9558 64.3949 76.9558 63.0102V52.3436C76.9558 50.6219 77.1991 49.3307 77.6857 48.4699C78.2096 47.6091 79.0517 46.9915 80.212 46.6173C79.0517 46.243 78.2096 45.6255 77.6857 44.7647C77.1991 43.9038 76.9558 42.6126 76.9558 40.891V30.2244C76.9558 28.8396 76.6003 27.7917 75.8892 27.0806C75.2155 26.332 74.1676 25.9578 72.7453 25.9578H71.5664V20.3438H74.3734C77.5172 20.3438 79.8938 21.1297 81.5032 22.7016C83.15 24.2361 83.9733 26.5004 83.9733 29.4946V41.0594C83.9733 41.9577 84.1792 42.6313 84.5909 43.0805C85.04 43.5296 85.6575 43.7541 86.4435 43.7541H88.3523Z" fill="#301C1B"/>
<rect x="134" width="92" height="92" rx="46" fill="#FFEDAB"/>
<path d="M186.425 18.7305H192.712L174.186 71.6144H167.898L186.425 18.7305Z" fill="#301C1B"/>
<rect x="236" width="92" height="92" rx="46" fill="#FFEDAB"/>
<path d="M297.431 66.6186L292.491 61.8467C288.823 64.9905 284.426 66.5624 279.298 66.5624C276.566 66.5624 274.115 66.1133 271.944 65.2151C269.773 64.3168 268.07 63.0817 266.835 61.5098C265.6 59.9005 264.982 58.0853 264.982 56.0642C264.982 53.6315 265.694 51.4982 267.116 49.6643C268.538 47.793 270.858 45.959 274.077 44.1626C272.505 42.5906 271.382 41.131 270.709 39.7836C270.035 38.3989 269.698 36.9766 269.698 35.517C269.698 32.7474 270.727 30.5205 272.786 28.8363C274.882 27.1147 277.651 26.2539 281.095 26.2539C284.276 26.2539 286.821 27.0399 288.73 28.6118C290.638 30.1463 291.593 32.2422 291.593 34.8995C291.593 36.9205 290.957 38.717 289.684 40.2889C288.449 41.8608 286.409 43.4515 283.565 45.0608L292.042 53.145C292.978 51.3111 293.707 49.1029 294.231 46.5204L299.902 48.3731C299.153 51.8537 297.974 54.8479 296.365 57.3555L301.305 62.0712L297.431 66.6186ZM281.095 31.2504C279.56 31.2504 278.344 31.6433 277.446 32.4293C276.547 33.1778 276.098 34.1696 276.098 35.4047C276.098 36.303 276.341 37.1638 276.828 37.9872C277.315 38.7731 278.25 39.8585 279.635 41.2433C281.881 40.0082 283.434 38.9415 284.295 38.0433C285.193 37.1076 285.642 36.0971 285.642 35.0117C285.642 33.8515 285.23 32.9346 284.407 32.2609C283.621 31.5872 282.517 31.2504 281.095 31.2504ZM279.803 60.8361C283.06 60.8361 285.904 59.8443 288.337 57.8607L277.951 47.9239C275.705 49.159 274.115 50.3567 273.179 51.5169C272.281 52.6397 271.832 53.9122 271.832 55.3344C271.832 56.9812 272.561 58.3098 274.021 59.3204C275.481 60.3309 277.408 60.8361 279.803 60.8361Z" fill="#301C1B"/>
<rect x="-70" width="92" height="92" rx="46" fill="#FFEDAB"/>
<path d="M-23.7237 20.1953C-18.6336 20.1953 -14.0863 21.2433 -10.0817 23.3392C-6.077 25.435 -2.97059 28.3543 -0.762413 32.097C1.48319 35.8397 2.60599 40.0689 2.60599 44.7846C2.60599 49.6501 1.65161 53.4676 -0.257153 56.2372C-2.16591 58.9693 -4.80449 60.3354 -8.17289 60.3354C-9.96937 60.3354 -11.4851 59.9237 -12.7202 59.1003C-13.9553 58.2395 -14.8161 57.0232 -15.3027 55.4512C-17.5483 58.7074 -20.9167 60.3354 -25.4079 60.3354C-27.9529 60.3354 -30.2546 59.7366 -32.3131 58.5389C-34.3716 57.3039 -35.9809 55.6009 -37.1411 53.4302C-38.3014 51.2594 -38.8815 48.7893 -38.8815 46.0197C-38.8815 43.2876 -38.3014 40.8548 -37.1411 38.7215C-35.9809 36.5508 -34.3716 34.8666 -32.3131 33.6689C-30.2546 32.4338 -27.9529 31.8163 -25.4079 31.8163C-23.4243 31.8163 -21.6465 32.1531 -20.0746 32.8268C-18.4652 33.5005 -17.1179 34.4923 -16.0325 35.8022V32.1531H-9.80095V51.2407C-9.80095 52.5881 -9.53896 53.5612 -9.01499 54.16C-8.45359 54.7588 -7.74249 55.0583 -6.88167 55.0583C-5.34718 55.0583 -4.18695 54.1974 -3.40099 52.4758C-2.57761 50.7168 -2.16591 48.1905 -2.16591 44.8969C-2.16591 40.9297 -3.08287 37.4303 -4.91677 34.3987C-6.71325 31.3672 -9.23955 29.0093 -12.4957 27.3251C-15.7518 25.6409 -19.4945 24.7988 -23.7237 24.7988C-27.9903 24.7988 -31.7704 25.697 -35.064 27.4935C-38.3575 29.2526 -40.9025 31.7227 -42.699 34.904C-44.4955 38.0853 -45.3937 41.6969 -45.3937 45.739C-45.3937 49.8559 -44.5142 53.505 -42.7551 56.6863C-40.9587 59.8676 -38.4324 62.3377 -35.1762 64.0968C-31.9201 65.8933 -28.1774 66.7915 -23.9482 66.7915C-22.1143 66.7915 -20.2617 66.5857 -18.3904 66.174C-16.4816 65.7623 -14.7038 65.1447 -13.0571 64.3214L-11.5413 68.8126C-13.1881 69.6734 -15.1343 70.3283 -17.3799 70.7775C-19.588 71.2266 -21.7775 71.4511 -23.9482 71.4511C-29.188 71.4511 -33.8289 70.347 -37.871 68.1389C-41.8756 65.9307 -45.0007 62.8804 -47.2463 58.9881C-49.4545 55.0957 -50.5586 50.6793 -50.5586 45.739C-50.5586 40.8735 -49.4358 36.5133 -47.1902 32.6584C-44.9446 28.766 -41.8008 25.7157 -37.7587 23.5076C-33.6792 21.2994 -29.0008 20.1953 -23.7237 20.1953ZM-24.2289 54.8898C-21.7962 54.8898 -19.8126 54.1039 -18.2781 52.532C-16.7062 50.9226 -15.9202 48.7519 -15.9202 46.0197C-15.9202 43.325 -16.7062 41.1917 -18.2781 39.6198C-19.8126 38.0478 -21.7962 37.2619 -24.2289 37.2619C-26.6991 37.2619 -28.7014 38.0665 -30.2359 39.6759C-31.7704 41.2478 -32.5377 43.3624 -32.5377 46.0197C-32.5377 48.7144 -31.7704 50.8665 -30.2359 52.4758C-28.7014 54.0852 -26.6991 54.8898 -24.2289 54.8898Z" fill="#301C1B"/>
</svg>
