<svg width="1440" height="93" viewBox="0 0 1440 93" fill="none" xmlns="http://www.w3.org/2000/svg">
<rect x="139" width="92" height="92" rx="46" fill="#FFEDAB"/>
<path d="M194.239 55.9055H174.59L170.716 65.0002H163.193L180.877 25.7021H188.063L205.804 65.0002H198.169L194.239 55.9055ZM191.825 50.1792L184.414 33.0003L177.06 50.1792H191.825Z" fill="#301C1B"/>
<rect x="649" width="92" height="92" rx="46" fill="#FFEDAB"/>
<path d="M677.086 26.7021H694.265C698.457 26.7021 702.181 27.5255 705.437 29.1723C708.693 30.7817 711.219 33.0834 713.016 36.0775C714.812 39.0342 715.71 42.4588 715.71 46.3512C715.71 50.2435 714.812 53.6868 713.016 56.6809C711.219 59.6376 708.693 61.9394 705.437 63.5861C702.181 65.1955 698.457 66.0002 694.265 66.0002H677.086V26.7021ZM693.928 59.8247C696.81 59.8247 699.336 59.2821 701.507 58.1967C703.715 57.0739 705.399 55.502 706.559 53.4809C707.757 51.4225 708.356 49.0459 708.356 46.3512C708.356 43.6564 707.757 41.2986 706.559 39.2775C705.399 37.219 703.715 35.6471 701.507 34.5618C699.336 33.4389 696.81 32.8775 693.928 32.8775H684.384V59.8247H693.928Z" fill="#301C1B"/>
<rect x="241" width="92" height="92" rx="46" fill="#FFEDAB"/>
<path d="M297.269 45.5652C299.44 46.2763 301.162 47.4739 302.434 49.1581C303.707 50.8049 304.343 52.8634 304.343 55.3335C304.343 58.7394 303.033 61.378 300.413 63.2493C297.793 65.0832 293.976 66.0002 288.961 66.0002H269.424V26.7021H287.838C292.479 26.7021 296.053 27.6191 298.56 29.453C301.068 31.2495 302.322 33.7384 302.322 36.9196C302.322 38.8658 301.873 40.5874 300.975 42.0845C300.076 43.5816 298.841 44.7418 297.269 45.5652ZM276.722 32.4284V43.2634H287.052C289.597 43.2634 291.543 42.8143 292.89 41.9161C294.275 40.9804 294.968 39.6331 294.968 37.874C294.968 36.0775 294.275 34.7302 292.89 33.8319C291.543 32.8963 289.597 32.4284 287.052 32.4284H276.722ZM288.511 60.2739C294.163 60.2739 296.989 58.3838 296.989 54.6037C296.989 50.8236 294.163 48.9336 288.511 48.9336H276.722V60.2739H288.511Z" fill="#301C1B"/>
<rect x="751" width="92" height="92" rx="46" fill="#FFEDAB"/>
<path d="M781.874 26.7021H799.053C803.245 26.7021 806.969 27.5255 810.225 29.1723C813.481 30.7817 816.007 33.0834 817.804 36.0775C819.6 39.0342 820.499 42.4588 820.499 46.3512C820.499 50.2435 819.6 53.6868 817.804 56.6809C816.007 59.6376 813.481 61.9394 810.225 63.5861C806.969 65.1955 803.245 66.0002 799.053 66.0002H781.874V26.7021ZM798.716 59.8247C801.598 59.8247 804.124 59.2821 806.295 58.1967C808.503 57.0739 810.188 55.502 811.348 53.4809C812.545 51.4225 813.144 49.0459 813.144 46.3512C813.144 43.6564 812.545 41.2986 811.348 39.2775C810.188 37.219 808.503 35.6471 806.295 34.5618C804.124 33.4389 801.598 32.8775 798.716 32.8775H789.172V59.8247H798.716ZM776.316 43.3196H799.671V48.709H776.316V43.3196Z" fill="#301C1B"/>
<rect x="343" width="92" height="92" rx="46" fill="#FFEDAB"/>
<path d="M390.073 66.5614C386.105 66.5614 382.512 65.7006 379.294 63.979C376.112 62.2199 373.605 59.8059 371.771 56.7369C369.974 53.6679 369.076 50.206 369.076 46.351C369.076 42.4961 369.993 39.0341 371.827 35.9651C373.661 32.8961 376.169 30.5008 379.35 28.7792C382.568 27.0202 386.161 26.1406 390.129 26.1406C393.347 26.1406 396.285 26.702 398.943 27.8248C401.6 28.9476 403.846 30.5757 405.679 32.709L400.964 37.1441C398.119 34.0751 394.62 32.5406 390.466 32.5406C387.771 32.5406 385.357 33.1394 383.223 34.3371C381.09 35.4973 379.425 37.1254 378.227 39.2212C377.029 41.3171 376.431 43.6937 376.431 46.351C376.431 49.0083 377.029 51.3849 378.227 53.4808C379.425 55.5767 381.09 57.2235 383.223 58.4211C385.357 59.5814 387.771 60.1615 390.466 60.1615C394.62 60.1615 398.119 58.6083 400.964 55.5018L405.679 59.993C403.846 62.1264 401.581 63.7544 398.887 64.8772C396.229 66 393.291 66.5614 390.073 66.5614Z" fill="#301C1B"/>
<rect x="445" width="92" height="92" rx="46" fill="#FFEDAB"/>
<path d="M492.073 66.5611C488.105 66.5611 484.512 65.7003 481.294 63.9787C478.112 62.2196 475.605 59.8056 473.771 56.7366C471.974 53.6676 471.076 50.2057 471.076 46.3507C471.076 42.4958 471.993 39.0338 473.827 35.9648C475.661 32.8958 478.169 30.5005 481.35 28.7789C484.568 27.0198 488.161 26.1403 492.129 26.1403C495.347 26.1403 498.285 26.7017 500.943 27.8245C503.6 28.9473 505.846 30.5754 507.679 32.7087L502.964 37.1437C500.119 34.0748 496.62 32.5403 492.466 32.5403C489.771 32.5403 487.357 33.1391 485.223 34.3368C483.09 35.497 481.425 37.125 480.227 39.2209C479.029 41.3168 478.431 43.6934 478.431 46.3507C478.431 49.008 479.029 51.3846 480.227 53.4805C481.425 55.5764 483.09 57.2232 485.223 58.4208C487.357 59.581 489.771 60.1611 492.466 60.1611C496.62 60.1611 500.119 58.6079 502.964 55.5015L507.679 59.9927C505.846 62.126 503.581 63.7541 500.887 64.8769C498.229 65.9997 495.291 66.5611 492.073 66.5611ZM502.515 15.8105L494.992 23.5017H488.592L481.069 15.8105H486.852L491.792 19.9649L496.732 15.8105H502.515Z" fill="#301C1B"/>
<rect x="547" width="92" height="92" rx="46" fill="#FFEDAB"/>
<path d="M593.073 66.5611C589.105 66.5611 585.512 65.7003 582.294 63.9787C579.112 62.2196 576.605 59.8056 574.771 56.7366C572.974 53.6676 572.076 50.2057 572.076 46.3507C572.076 42.4958 572.993 39.0338 574.827 35.9648C576.661 32.8958 579.169 30.5005 582.35 28.7789C585.568 27.0198 589.161 26.1403 593.129 26.1403C596.347 26.1403 599.285 26.7017 601.943 27.8245C604.6 28.9473 606.846 30.5754 608.679 32.7087L603.964 37.1437C601.119 34.0748 597.62 32.5403 593.466 32.5403C590.771 32.5403 588.357 33.1391 586.223 34.3368C584.09 35.497 582.425 37.125 581.227 39.2209C580.029 41.3168 579.431 43.6934 579.431 46.3507C579.431 49.008 580.029 51.3846 581.227 53.4805C582.425 55.5764 584.09 57.2232 586.223 58.4208C588.357 59.581 590.771 60.1611 593.466 60.1611C597.62 60.1611 601.119 58.6079 603.964 55.5015L608.679 59.9927C606.846 62.126 604.581 63.7541 601.887 64.8769C599.229 65.9997 596.291 66.5611 593.073 66.5611ZM595.655 15.8105H603.908L594.139 23.5017H588.076L595.655 15.8105Z" fill="#301C1B"/>
<rect x="1189" y="1" width="92" height="92" rx="46" fill="#FFEDAB"/>
<path d="M1252.97 27.7021V67.0002H1245.67V50.1581H1225.35V67.0002H1218.05V27.7021H1225.35V43.9266H1245.67V27.7021H1252.97Z" fill="#301C1B"/>
<rect x="1291" y="1" width="92" height="92" rx="46" fill="#FFEDAB"/>
<path d="M1333.31 27.7021H1340.61V67.0002H1333.31V27.7021Z" fill="#301C1B"/>
<rect x="883" y="1" width="92" height="92" rx="46" fill="#FFEDAB"/>
<path d="M944.946 60.8809V67.0002H915.473V27.7021H944.16V33.8214H922.771V44.0389H941.746V50.0459H922.771V60.8809H944.946Z" fill="#301C1B"/>
<rect x="1393" y="1" width="92" height="92" rx="46" fill="#FFEDAB"/>
<path d="M1436.09 67.5616C1433.59 67.5616 1431.27 67.075 1429.13 66.1019C1427.04 65.0914 1425.32 63.6879 1423.97 61.8914L1428.12 56.895C1430.29 59.8891 1432.9 61.3862 1435.93 61.3862C1440.01 61.3862 1442.05 58.9721 1442.05 54.1441V33.8214H1428.07V27.7021H1449.34V53.7511C1449.34 58.3546 1448.22 61.8166 1445.98 64.137C1443.73 66.42 1440.44 67.5616 1436.09 67.5616Z" fill="#301C1B"/>
<rect x="985" y="1" width="92" height="92" rx="46" fill="#FFEDAB"/>
<path d="M1026.7 33.8214V45.7792H1045.68V51.9546H1026.7V67.0002H1019.4V27.7021H1048.09V33.8214H1026.7Z" fill="#301C1B"/>
<rect x="1087" y="1" width="92" height="92" rx="46" fill="#FFEDAB"/>
<path d="M1143.43 46.9019H1150.33V62.565C1148.31 64.1743 1145.96 65.4094 1143.26 66.2702C1140.57 67.131 1137.8 67.5614 1134.95 67.5614C1130.95 67.5614 1127.34 66.7006 1124.12 64.979C1120.9 63.2199 1118.37 60.8059 1116.54 57.7369C1114.7 54.6679 1113.79 51.206 1113.79 47.351C1113.79 43.4961 1114.7 40.0341 1116.54 36.9651C1118.37 33.8961 1120.9 31.5008 1124.12 29.7792C1127.37 28.0202 1131.02 27.1406 1135.06 27.1406C1138.36 27.1406 1141.35 27.6833 1144.05 28.7687C1146.74 29.8541 1149.01 31.4447 1150.84 33.5406L1146.24 38.0318C1143.24 35.0377 1139.63 33.5406 1135.4 33.5406C1132.63 33.5406 1130.16 34.1207 1127.99 35.2809C1125.86 36.4412 1124.17 38.0692 1122.94 40.1651C1121.74 42.261 1121.14 44.6563 1121.14 47.351C1121.14 49.9709 1121.74 52.3288 1122.94 54.4247C1124.17 56.5206 1125.86 58.1673 1127.99 59.365C1130.16 60.5626 1132.61 61.1615 1135.34 61.1615C1138.41 61.1615 1141.11 60.4878 1143.43 59.1404V46.9019Z" fill="#301C1B"/>
<rect x="7" width="92" height="92" rx="46" fill="#FFEDAB"/>
<path d="M54.0487 61.3932C50.9423 61.3932 48.154 60.7382 45.6838 59.4283C43.2137 58.1183 41.2862 56.3031 39.9014 53.9827C38.5166 51.6248 37.8242 48.9675 37.8242 46.0108C37.8242 43.0541 38.5166 40.4155 39.9014 38.0951C41.2862 35.7746 43.1949 33.9594 45.6277 32.6495C48.0978 31.3395 50.9048 30.6846 54.0487 30.6846C57.0054 30.6846 59.5878 31.2834 61.796 32.4811C64.0416 33.6787 65.7258 35.4003 66.8486 37.6459L61.4592 40.7898C60.5983 39.405 59.513 38.3758 58.203 37.7021C56.9305 36.991 55.527 36.6354 53.9925 36.6354C51.3727 36.6354 49.2019 37.4962 47.4803 39.2179C45.7587 40.9021 44.8979 43.1664 44.8979 46.0108C44.8979 48.8552 45.74 51.1382 47.4242 52.8599C49.1458 54.5441 51.3352 55.3862 53.9925 55.3862C55.527 55.3862 56.9305 55.0493 58.203 54.3757C59.513 53.6645 60.5983 52.6166 61.4592 51.2318L66.8486 54.3757C65.6884 56.6213 63.9855 58.3616 61.7399 59.5967C59.5317 60.7943 56.968 61.3932 54.0487 61.3932Z" fill="#301C1B"/>
</svg>
