<svg width="1440" height="93" viewBox="0 0 1440 93" fill="none" xmlns="http://www.w3.org/2000/svg">
<rect x="276" width="92" height="92" rx="46" fill="#FFEDAB"/>
<path d="M338.614 33.8775H325.589V67.0002H318.347V33.8775H305.379V27.7021H338.614V33.8775Z" fill="#301C1B"/>
<rect x="378" width="92" height="92" rx="46" fill="#FFEDAB"/>
<path d="M432.005 42.1968C436.346 42.1968 439.752 43.3383 442.222 45.6213C444.693 47.9044 445.928 51.2915 445.928 55.7827V66.0002H438.742V56.7371C438.742 54.0798 437.993 52.0587 436.496 50.6739C435.037 49.2517 432.997 48.5406 430.377 48.5406C427.869 48.5406 424.969 49.2517 421.675 50.6739V66.0002H414.433V32.8775H401.465V26.7021H435.823V32.8775H421.675V44.1056C425.38 42.833 428.824 42.1968 432.005 42.1968Z" fill="#301C1B"/>
<rect x="480" width="92" height="92" rx="46" fill="#FFEDAB"/>
<path d="M547.424 27.7021L530.357 59.4213C528.86 62.2283 527.064 64.3429 524.968 65.7651C522.909 67.1499 520.664 67.8423 518.231 67.8423C516.285 67.8423 514.357 67.4306 512.448 66.6072L514.245 60.8809C515.779 61.3674 517.052 61.6107 518.062 61.6107C520.42 61.6107 522.366 60.3943 523.901 57.9616L524.519 57.0072L508.855 27.7021H516.659L528.28 50.7757L540.238 27.7021H547.424Z" fill="#301C1B"/>
<rect x="582" width="92" height="92" rx="46" fill="#FFEDAB"/>
<path d="M649.924 30.7017L632.857 62.4208C631.36 65.2278 629.564 67.3424 627.468 68.7647C625.409 70.1494 623.164 70.8418 620.731 70.8418C618.785 70.8418 616.857 70.4301 614.948 69.6068L616.745 63.8805C618.279 64.367 619.552 64.6103 620.562 64.6103C622.92 64.6103 624.866 63.3939 626.401 60.9612L627.019 60.0068L611.355 30.7017H619.159L630.78 53.7753L642.738 30.7017H649.924ZM630.275 28.0632C626.906 28.0632 624.361 27.3708 622.64 25.986C620.955 24.6012 620.095 22.5801 620.057 19.9229H625.166C625.203 21.3076 625.652 22.3743 626.513 23.1228C627.374 23.8714 628.628 24.2456 630.275 24.2456C631.884 24.2456 633.138 23.8714 634.036 23.1228C634.972 22.3743 635.458 21.3076 635.496 19.9229H640.548C640.511 22.5427 639.613 24.5638 637.854 25.986C636.132 27.3708 633.606 28.0632 630.275 28.0632Z" fill="#301C1B"/>
<rect x="684" width="92" height="92" rx="46" fill="#FFEDAB"/>
<path d="M754.127 45.2947C754.127 50.4595 752.33 54.5391 748.737 57.5332C745.144 60.5273 740.035 62.1554 733.411 62.4174V66.5717H726.674V62.4174C720.05 62.0805 714.922 60.4338 711.292 57.477C707.699 54.5203 705.902 50.4595 705.902 45.2947C705.902 40.1298 707.699 36.069 711.292 33.1123C714.922 30.1182 720.05 28.4527 726.674 28.1158V24.1299H733.411V28.1158C740.035 28.4527 745.144 30.1182 748.737 33.1123C752.33 36.069 754.127 40.1298 754.127 45.2947ZM733.411 56.6911C737.902 56.3542 741.308 55.2314 743.628 53.3227C745.949 51.3765 747.109 48.6818 747.109 45.2385C747.109 41.7953 745.93 39.1193 743.572 37.2105C741.252 35.3017 737.865 34.1977 733.411 33.8982V56.6911ZM713.032 45.2947C713.032 48.7005 714.192 51.3578 716.513 53.2665C718.871 55.1753 722.258 56.3168 726.674 56.6911V33.8982C717.579 34.5719 713.032 38.3707 713.032 45.2947Z" fill="#301C1B"/>
<rect x="888" width="92" height="92" rx="46" fill="#FFEDAB"/>
<path d="M955.232 57.8247V72.6457H948.496V64.0002H915.148V24.7021H922.334V57.8247H942.152V24.7021H949.394V57.8247H955.232Z" fill="#301C1B"/>
<rect x="786" width="92" height="92" rx="46" fill="#FFEDAB"/>
<path d="M822.614 26.7021L831.877 39.8389L841.14 26.7021H849.674L836.481 45.5652L850.74 66.0002H842.095L831.877 51.6845L821.716 66.0002H813.295L827.498 45.8459L814.193 26.7021H822.614Z" fill="#301C1B"/>
<rect x="1428" y="1" width="92" height="92" rx="46" fill="#FFEDAB"/>
<rect x="1020" y="1" width="92" height="92" rx="46" fill="#FFEDAB"/>
<path d="M1081.32 28.7021V68.0002H1074.08V53.1792C1070.37 54.564 1066.86 55.2564 1063.52 55.2564C1058.51 55.2564 1054.64 54.0587 1051.9 51.6634C1049.21 49.2307 1047.86 45.75 1047.86 41.2214V28.7021H1055.1V40.4354C1055.1 43.205 1055.91 45.3196 1057.52 46.7792C1059.13 48.2389 1061.43 48.9687 1064.42 48.9687C1067.83 48.9687 1071.05 48.2763 1074.08 46.8915V28.7021H1081.32Z" fill="#301C1B"/>
<rect x="1122" y="1" width="92" height="92" rx="46" fill="#FFEDAB"/>
<path d="M1185.16 66.0002H1171.35V74.6457H1164.61V66.0002H1150.91V26.7021H1158.1V59.8247H1177.92V26.7021H1185.16V66.0002Z" fill="#301C1B"/>
<rect x="1224" y="1" width="92" height="92" rx="46" fill="#FFEDAB"/>
<path d="M1295.24 27.7021V67.0002H1244.77V27.7021H1251.96V60.8247H1266.44V27.7021H1273.63V60.8247H1288.06V27.7021H1295.24Z" fill="#301C1B"/>
<rect x="1326" y="1" width="92" height="92" rx="46" fill="#FFEDAB"/>
<path d="M1394.92 27.7021V67.0002H1344.45V27.7021H1351.64V60.8247H1366.12V27.7021H1373.31V60.8247H1387.74V27.7021H1394.92ZM1400.59 60.8247V75.365H1393.86V67.0002H1387.57V60.8247H1400.59Z" fill="#301C1B"/>
<rect x="42" width="92" height="92" rx="46" fill="#FFEDAB"/>
<path d="M73.5078 34.0208H80.5253V53.7821L97.0866 34.0208H103.487V63.9996H96.4691V44.2383L79.9639 63.9996H73.5078V34.0208ZM88.0481 30.484C85.0165 30.484 82.6961 29.7916 81.0867 28.4068C79.5148 26.9846 78.7101 24.9262 78.6727 22.2314H83.3323C83.3697 23.5788 83.7814 24.6455 84.5674 25.4314C85.3908 26.2174 86.5323 26.6104 87.9919 26.6104C89.4141 26.6104 90.5369 26.2174 91.3603 25.4314C92.2211 24.6455 92.6703 23.5788 92.7077 22.2314H97.4796C97.4422 24.9262 96.6188 26.9846 95.0094 28.4068C93.4001 29.7916 91.0796 30.484 88.0481 30.484Z" fill="#301C1B"/>
<rect x="144" width="92" height="92" rx="46" fill="#FFEDAB"/>
<path d="M190.326 49.9863H184.881V62.0002H177.863V32.0215H184.881V44.1477H190.495L199.365 32.0215H206.888L195.997 46.4495L207.617 62.0002H199.365L190.326 49.9863Z" fill="#301C1B"/>
<rect x="-60" width="92" height="92" rx="46" fill="#FFEDAB"/>
</svg>
