<svg width="1440" height="93" viewBox="0 0 1440 93" fill="none" xmlns="http://www.w3.org/2000/svg">
<rect x="593" width="92" height="92" rx="46" fill="#FFEDAB"/>
<path d="M654.824 46.1792C654.824 46.6658 654.787 47.3582 654.712 48.2564H631.189C631.601 50.4646 632.668 52.2236 634.389 53.5336C636.148 54.8061 638.319 55.4423 640.902 55.4423C644.195 55.4423 646.909 54.3569 649.042 52.1862L652.803 56.509C651.456 58.1183 649.753 59.3347 647.695 60.1581C645.636 60.9815 643.316 61.3932 640.733 61.3932C637.44 61.3932 634.539 60.7382 632.031 59.4283C629.524 58.1183 627.578 56.3031 626.193 53.9827C624.846 51.6248 624.172 48.9675 624.172 46.0108C624.172 43.0915 624.827 40.4716 626.137 38.1512C627.484 35.7933 629.337 33.9594 631.695 32.6495C634.053 31.3395 636.71 30.6846 639.667 30.6846C642.586 30.6846 645.187 31.3395 647.47 32.6495C649.79 33.922 651.587 35.7372 652.859 38.0951C654.169 40.4155 654.824 43.1102 654.824 46.1792ZM639.667 36.2986C637.421 36.2986 635.512 36.9722 633.94 38.3196C632.406 39.6295 631.47 41.3886 631.133 43.5968H648.144C647.844 41.426 646.927 39.667 645.393 38.3196C643.858 36.9722 641.95 36.2986 639.667 36.2986Z" fill="#301C1B"/>
<rect x="695" width="92" height="92" rx="46" fill="#FFEDAB"/>
<path d="M747.424 30.6213C744.467 30.6213 742.989 32.2307 742.989 35.4494V37.2458H751.242V42.8598H743.214V67H736.196V42.8598H731.256V37.2458H736.196V35.3371C736.196 32.1184 737.132 29.5921 739.003 27.7582C740.875 25.8868 743.513 24.9512 746.919 24.9512C749.614 24.9512 751.728 25.4939 753.263 26.5792L751.298 31.8564C750.1 31.033 748.809 30.6213 747.424 30.6213Z" fill="#301C1B"/>
<rect x="185" width="92" height="92" rx="46" fill="#FFEDAB"/>
<path d="M232.549 66.3926C229.442 66.3926 226.654 65.7376 224.184 64.4277C221.714 63.1178 219.786 61.3026 218.401 58.9821C217.017 56.6242 216.324 53.9669 216.324 51.0102C216.324 48.0535 217.017 45.4149 218.401 43.0945C219.786 40.774 221.695 38.9588 224.128 37.6489C226.598 36.339 229.405 35.684 232.549 35.684C235.505 35.684 238.088 36.2828 240.296 37.4805C242.542 38.6781 244.226 40.3998 245.349 42.6454L239.959 45.7892C239.098 44.4044 238.013 43.3752 236.703 42.7015C235.431 41.9904 234.027 41.6348 232.493 41.6348C229.873 41.6348 227.702 42.4957 225.98 44.2173C224.259 45.9015 223.398 48.1658 223.398 51.0102C223.398 53.8547 224.24 56.1377 225.924 57.8593C227.646 59.5435 229.835 60.3856 232.493 60.3856C234.027 60.3856 235.431 60.0488 236.703 59.3751C238.013 58.664 239.098 57.616 239.959 56.2312L245.349 59.3751C244.188 61.6207 242.485 63.361 240.24 64.5961C238.032 65.7938 235.468 66.3926 232.549 66.3926ZM242.149 24.2314L234.626 31.9226H228.226L220.703 24.2314H226.486L231.426 28.3858L236.366 24.2314H242.149Z" fill="#301C1B"/>
<rect x="797" width="92" height="92" rx="46" fill="#FFEDAB"/>
<path d="M858.369 28.0214V53.4528C858.369 64.0072 852.979 69.2843 842.201 69.2843C839.319 69.2843 836.587 68.91 834.004 68.1615C831.422 67.4504 829.288 66.4025 827.604 65.0177L830.748 59.7405C832.058 60.8259 833.705 61.6867 835.688 62.323C837.709 62.9966 839.749 63.3335 841.808 63.3335C845.101 63.3335 847.515 62.5849 849.05 61.0879C850.584 59.5908 851.351 57.3078 851.351 54.2388V52.6669C850.154 53.9768 848.694 54.9686 846.972 55.6423C845.251 56.316 843.361 56.6528 841.302 56.6528C838.458 56.6528 835.875 56.054 833.555 54.8563C831.272 53.6213 829.457 51.8996 828.109 49.6915C826.799 47.4833 826.145 44.957 826.145 42.1125C826.145 39.2681 826.799 36.7605 828.109 34.5898C829.457 32.3816 831.272 30.6787 833.555 29.4811C835.875 28.2834 838.458 27.6846 841.302 27.6846C843.473 27.6846 845.438 28.0401 847.197 28.7512C848.994 29.4623 850.491 30.5477 851.688 32.0073V28.0214H858.369ZM842.369 50.702C845.026 50.702 847.197 49.916 848.881 48.3441C850.603 46.7347 851.464 44.6576 851.464 42.1125C851.464 39.605 850.603 37.5652 848.881 35.9933C847.197 34.4214 845.026 33.6354 842.369 33.6354C839.674 33.6354 837.466 34.4214 835.744 35.9933C834.06 37.5652 833.218 39.605 833.218 42.1125C833.218 44.6576 834.06 46.7347 835.744 48.3441C837.466 49.916 839.674 50.702 842.369 50.702Z" fill="#301C1B"/>
<rect x="287" width="92" height="92" rx="46" fill="#FFEDAB"/>
<path d="M335.049 64.3926C331.942 64.3926 329.154 63.7376 326.684 62.4277C324.214 61.1178 322.286 59.3026 320.901 56.9821C319.517 54.6242 318.824 51.9669 318.824 49.0102C318.824 46.0535 319.517 43.4149 320.901 41.0945C322.286 38.774 324.195 36.9588 326.628 35.6489C329.098 34.339 331.905 33.684 335.049 33.684C338.005 33.684 340.588 34.2828 342.796 35.4805C345.042 36.6781 346.726 38.3998 347.849 40.6454L342.459 43.7892C341.598 42.4044 340.513 41.3752 339.203 40.7015C337.931 39.9904 336.527 39.6348 334.993 39.6348C332.373 39.6348 330.202 40.4957 328.48 42.2173C326.759 43.9015 325.898 46.1658 325.898 49.0102C325.898 51.8547 326.74 54.1377 328.424 55.8593C330.146 57.5435 332.335 58.3856 334.993 58.3856C336.527 58.3856 337.931 58.0488 339.203 57.3751C340.513 56.664 341.598 55.616 342.459 54.2312L347.849 57.3751C346.688 59.6207 344.985 61.361 342.74 62.5961C340.532 63.7938 337.968 64.3926 335.049 64.3926ZM336.789 22.2314H345.042L335.273 29.9226H329.21L336.789 22.2314Z" fill="#301C1B"/>
<rect x="389" width="92" height="92" rx="46" fill="#FFEDAB"/>
<path d="M449.695 24.3438V65.9996H442.958V62.126C441.798 63.5482 440.357 64.6148 438.635 65.326C436.951 66.0371 435.08 66.3926 433.021 66.3926C430.139 66.3926 427.538 65.7564 425.218 64.4839C422.935 63.2113 421.138 61.4149 419.828 59.0944C418.518 56.7365 417.863 54.0418 417.863 51.0103C417.863 47.9787 418.518 45.3027 419.828 42.9822C421.138 40.6618 422.935 38.8653 425.218 37.5928C427.538 36.3203 430.139 35.684 433.021 35.684C435.005 35.684 436.82 36.0209 438.467 36.6946C440.113 37.3682 441.517 38.3788 442.677 39.7261V24.3438H449.695ZM433.863 60.3856C435.547 60.3856 437.063 60.0114 438.411 59.2628C439.758 58.4769 440.825 57.3728 441.611 55.9506C442.396 54.5284 442.789 52.8816 442.789 51.0103C442.789 49.1389 442.396 47.4921 441.611 46.0699C440.825 44.6477 439.758 43.5623 438.411 42.8138C437.063 42.0279 435.547 41.6349 433.863 41.6349C432.179 41.6349 430.663 42.0279 429.316 42.8138C427.968 43.5623 426.902 44.6477 426.116 46.0699C425.33 47.4921 424.937 49.1389 424.937 51.0103C424.937 52.8816 425.33 54.5284 426.116 55.9506C426.902 57.3728 427.968 58.4769 429.316 59.2628C430.663 60.0114 432.179 60.3856 433.863 60.3856Z" fill="#301C1B"/>
<rect x="491" width="92" height="92" rx="46" fill="#FFEDAB"/>
<path d="M550.195 24.3438V65.9996H543.458V62.126C542.298 63.5482 540.857 64.6148 539.135 65.326C537.451 66.0371 535.58 66.3926 533.521 66.3926C530.639 66.3926 528.038 65.7564 525.718 64.4839C523.435 63.2113 521.638 61.4149 520.328 59.0944C519.018 56.7365 518.363 54.0418 518.363 51.0103C518.363 47.9787 519.018 45.3027 520.328 42.9822C521.638 40.6618 523.435 38.8653 525.718 37.5928C528.038 36.3203 530.639 35.684 533.521 35.684C535.505 35.684 537.32 36.0209 538.967 36.6946C540.613 37.3682 542.017 38.3788 543.177 39.7261V24.3438H550.195ZM534.363 60.3856C536.047 60.3856 537.563 60.0114 538.911 59.2628C540.258 58.4769 541.325 57.3728 542.111 55.9506C542.896 54.5284 543.289 52.8816 543.289 51.0103C543.289 49.1389 542.896 47.4921 542.111 46.0699C541.325 44.6477 540.258 43.5623 538.911 42.8138C537.563 42.0279 536.047 41.6349 534.363 41.6349C532.679 41.6349 531.163 42.0279 529.816 42.8138C528.468 43.5623 527.402 44.6477 526.616 46.0699C525.83 47.4921 525.437 49.1389 525.437 51.0103C525.437 52.8816 525.83 54.5284 526.616 55.9506C527.402 57.3728 528.468 58.4769 529.816 59.2628C531.163 60.0114 532.679 60.3856 534.363 60.3856ZM532.118 27.9367H554.798V32.5402H532.118V27.9367Z" fill="#301C1B"/>
<rect x="1133" y="1" width="92" height="92" rx="46" fill="#FFEDAB"/>
<path d="M1174.74 72.2844C1171.78 72.2844 1169.53 71.7043 1168 70.544L1170.02 65.323C1171.07 66.109 1172.44 66.502 1174.12 66.502C1175.43 66.502 1176.42 66.0903 1177.09 65.2669C1177.81 64.4809 1178.16 63.302 1178.16 61.7301V31.0215H1185.18V61.5616C1185.18 64.8926 1184.26 67.5125 1182.43 69.4212C1180.59 71.33 1178.03 72.2844 1174.74 72.2844ZM1181.64 26.0812C1180.37 26.0812 1179.3 25.6882 1178.44 24.9022C1177.58 24.0788 1177.15 23.0683 1177.15 21.8707C1177.15 20.673 1177.58 19.6812 1178.44 18.8952C1179.3 18.0718 1180.37 17.6602 1181.64 17.6602C1182.91 17.6602 1183.98 18.0531 1184.84 18.8391C1185.7 19.5876 1186.13 20.542 1186.13 21.7022C1186.13 22.9373 1185.7 23.9853 1184.84 24.8461C1184.02 25.6695 1182.95 26.0812 1181.64 26.0812Z" fill="#301C1B"/>
<rect x="1235" y="1" width="92" height="92" rx="46" fill="#FFEDAB"/>
<path d="M1280.5 54.1436L1275.28 59.0839V66.9996H1268.26V25.3438H1275.28V50.4945L1289.82 37.0209H1298.24L1285.72 49.5962L1299.42 66.9996H1290.88L1280.5 54.1436Z" fill="#301C1B"/>
<rect x="1337" y="1" width="92" height="92" rx="46" fill="#FFEDAB"/>
<path d="M1379.49 25.3438H1386.51V66.9996H1379.49V25.3438Z" fill="#301C1B"/>
<rect x="929" y="1" width="92" height="92" rx="46" fill="#FFEDAB"/>
<path d="M977.397 36.684C981.177 36.684 984.209 37.7881 986.492 39.9963C988.775 42.2045 989.916 45.4793 989.916 49.8208V66.9996H982.899V50.719C982.899 48.0992 982.281 46.1343 981.046 44.8243C979.811 43.477 978.052 42.8033 975.769 42.8033C973.187 42.8033 971.147 43.5893 969.65 45.1612C968.153 46.6957 967.404 48.9226 967.404 51.8418V66.9996H960.387V25.3438H967.404V40.5016C968.564 39.2665 969.987 38.3308 971.671 37.6946C973.392 37.0209 975.301 36.684 977.397 36.684Z" fill="#301C1B"/>
<rect x="1439" y="1" width="92" height="92" rx="46" fill="#FFEDAB"/>
<rect x="1031" y="1" width="92" height="92" rx="46" fill="#FFEDAB"/>
<path d="M1073.49 37.0215H1080.51V67.0002H1073.49V37.0215ZM1077.03 32.0812C1075.75 32.0812 1074.69 31.6882 1073.83 30.9022C1072.97 30.0788 1072.54 29.0683 1072.54 27.8707C1072.54 26.673 1072.97 25.6812 1073.83 24.8952C1074.69 24.0718 1075.75 23.6602 1077.03 23.6602C1078.3 23.6602 1079.37 24.0531 1080.23 24.8391C1081.09 25.5876 1081.52 26.542 1081.52 27.7022C1081.52 28.9373 1081.09 29.9853 1080.23 30.8461C1079.4 31.6695 1078.34 32.0812 1077.03 32.0812Z" fill="#301C1B"/>
<rect x="-49" width="92" height="92" rx="46" fill="#FFEDAB"/>
<path d="M-13.4453 26.7023H6.48439V18.6182H13.2212V32.8777H-6.25939V66.0003H-13.4453V26.7023Z" fill="#301C1B"/>
<rect x="53" width="92" height="92" rx="46" fill="#FFEDAB"/>
<path d="M121.046 54.8247V69.365H114.309V61.0002H84.1621V69.365H77.3691L77.4253 54.8247H79.1095C81.5796 54.7125 83.3013 52.8973 84.2744 49.3792C85.2849 45.8236 85.9024 40.7523 86.127 34.1652L86.5761 21.7021H115.376V54.8247H121.046ZM92.5269 34.8389C92.3398 39.9289 91.9281 44.1769 91.2919 47.5827C90.6556 50.9511 89.6451 53.3651 88.2603 54.8247H108.19V27.8775H92.8076L92.5269 34.8389Z" fill="#301C1B"/>
</svg>
