<svg width="1440" height="93" viewBox="0 0 1440 93" fill="none" xmlns="http://www.w3.org/2000/svg">
<rect x="231" width="92" height="92" rx="46" fill="#FFEDAB"/>
<path d="M274.507 43.5442C278.212 42.3839 281.655 41.8038 284.837 41.8038C289.141 41.8038 292.528 42.8705 294.998 45.0038C297.505 47.1371 298.759 50.1874 298.759 54.1546C298.759 58.1967 297.487 61.247 294.942 63.3054C292.434 65.3265 289.234 66.337 285.342 66.337C283.62 66.337 282.067 66.1873 280.682 65.8879L281.468 59.937C282.366 60.199 283.377 60.33 284.5 60.33C286.483 60.33 288.149 59.8248 289.496 58.8142C290.844 57.8037 291.517 56.3066 291.517 54.323C291.517 52.2646 290.769 50.6739 289.272 49.5511C287.812 48.4283 285.847 47.8669 283.377 47.8669C280.682 47.8669 277.725 48.5406 274.507 49.888V66.0002H267.265V32.8775H254.24V26.7021H288.935V32.8775H274.507V43.5442Z" fill="#301C1B"/>
<rect x="741" width="92" height="92" rx="46" fill="#FFEDAB"/>
<path d="M795.432 45.5094C797.789 46.2579 799.623 47.4743 800.933 49.1585C802.281 50.8053 802.954 52.7514 802.954 54.997C802.954 57.3549 802.187 59.4134 800.653 61.1724C799.118 62.8941 797.06 64.2227 794.477 65.1584C791.932 66.094 789.144 66.5619 786.112 66.5619C783.493 66.5619 780.854 66.2063 778.197 65.4952C775.577 64.7467 773.144 63.6426 770.898 62.183L773.256 56.8497C774.978 58.0099 776.887 58.9081 778.983 59.5444C781.078 60.1432 783.156 60.4426 785.214 60.4426C788.171 60.4426 790.622 59.8625 792.568 58.7023C794.552 57.5421 795.544 55.9514 795.544 53.9304C795.544 52.2088 794.833 50.8988 793.411 50.0006C791.988 49.1023 790.023 48.6532 787.516 48.6532H778.365V42.9269H786.954C789.125 42.9269 790.828 42.4778 792.063 41.5796C793.298 40.6813 793.916 39.465 793.916 37.9305C793.916 36.0966 793.074 34.6744 791.39 33.6638C789.743 32.6533 787.628 32.1481 785.046 32.1481C783.287 32.1481 781.471 32.41 779.6 32.934C777.729 33.4206 775.97 34.1504 774.323 35.1235L772.021 29.2288C774.042 28.1434 776.176 27.3387 778.421 26.8148C780.704 26.2534 782.969 25.9727 785.214 25.9727C788.133 25.9727 790.809 26.4218 793.242 27.32C795.712 28.2183 797.677 29.5095 799.137 31.1937C800.596 32.8405 801.326 34.7866 801.326 37.0322C801.326 38.9784 800.802 40.6813 799.754 42.141C798.706 43.6006 797.266 44.7234 795.432 45.5094Z" fill="#301C1B"/>
<rect x="333" width="92" height="92" rx="46" fill="#FFEDAB"/>
<path d="M395.171 59.8809V66.0002H365.697V26.7021H394.385V32.8214H372.995V43.0389H391.971V49.0459H372.995V59.8809H395.171Z" fill="#301C1B"/>
<rect x="843" width="92" height="92" rx="46" fill="#FFEDAB"/>
<path d="M889.374 66.5614C886.342 66.5614 883.404 66.131 880.56 65.2702C877.753 64.4094 875.526 63.2679 873.879 61.8457L876.405 56.1755C878.015 57.448 879.979 58.496 882.3 59.3194C884.658 60.1053 887.016 60.4983 889.374 60.4983C892.293 60.4983 894.464 60.0305 895.886 59.0948C897.345 58.1591 898.075 56.9241 898.075 55.3896C898.075 54.2668 897.664 53.3498 896.84 52.6387C896.054 51.8902 895.044 51.3101 893.809 50.8984C892.574 50.4867 890.889 50.0188 888.756 49.4949C885.762 48.7838 883.329 48.0727 881.458 47.3615C879.624 46.6504 878.033 45.5464 876.686 44.0493C875.376 42.5148 874.721 40.4563 874.721 37.8739C874.721 35.7031 875.301 33.7382 876.461 31.9792C877.659 30.1827 879.437 28.7605 881.795 27.7125C884.19 26.6646 887.109 26.1406 890.552 26.1406C892.948 26.1406 895.306 26.44 897.626 27.0389C899.947 27.6377 901.949 28.4985 903.633 29.6213L901.331 35.2914C899.61 34.2809 897.813 33.5137 895.942 32.9897C894.071 32.4657 892.255 32.2037 890.496 32.2037C887.614 32.2037 885.462 32.6903 884.04 33.6634C882.655 34.6365 881.963 35.9277 881.963 37.537C881.963 38.6598 882.356 39.5768 883.142 40.2879C883.965 40.999 884.995 41.5604 886.23 41.9721C887.465 42.3838 889.149 42.8516 891.282 43.3756C894.202 44.0493 896.597 44.7604 898.468 45.5089C900.34 46.22 901.93 47.3241 903.24 48.8212C904.587 50.3183 905.261 52.3393 905.261 54.8843C905.261 57.0551 904.662 59.02 903.465 60.779C902.304 62.5381 900.527 63.9416 898.131 64.9895C895.736 66.0375 892.817 66.5614 889.374 66.5614Z" fill="#301C1B"/>
<rect x="435" width="92" height="92" rx="46" fill="#FFEDAB"/>
<path d="M497.171 62.881V69.0003H467.697V29.7023H496.385V35.8215H474.995V46.039H493.971V52.046H474.995V62.881H497.171ZM476.68 25.8847C475.707 25.8847 474.902 25.5666 474.266 24.9304C473.629 24.2941 473.311 23.4894 473.311 22.5163C473.311 21.5058 473.629 20.6824 474.266 20.0462C474.902 19.4099 475.707 19.0918 476.68 19.0918C477.653 19.0918 478.457 19.4099 479.094 20.0462C479.73 20.6824 480.048 21.5058 480.048 22.5163C480.048 23.4894 479.73 24.2941 479.094 24.9304C478.457 25.5666 477.653 25.8847 476.68 25.8847ZM487.571 25.8847C486.598 25.8847 485.793 25.5666 485.157 24.9304C484.521 24.2941 484.202 23.4894 484.202 22.5163C484.202 21.5058 484.521 20.6824 485.157 20.0462C485.793 19.4099 486.598 19.0918 487.571 19.0918C488.544 19.0918 489.349 19.4099 489.985 20.0462C490.621 20.6824 490.939 21.5058 490.939 22.5163C490.939 23.4894 490.621 24.2941 489.985 24.9304C489.349 25.5666 488.544 25.8847 487.571 25.8847Z" fill="#301C1B"/>
<rect x="537" width="92" height="92" rx="46" fill="#FFEDAB"/>
<path d="M585.226 66.5614C581.408 66.5614 577.965 65.7006 574.896 63.979C571.864 62.2199 569.488 59.8059 567.766 56.7369C566.044 53.6679 565.184 50.206 565.184 46.351C565.184 42.4961 566.044 39.0341 567.766 35.9651C569.488 32.8961 571.864 30.5008 574.896 28.7792C577.965 27.0202 581.408 26.1406 585.226 26.1406C588.557 26.1406 591.569 26.702 594.264 27.8248C596.996 28.9476 599.261 30.5757 601.057 32.709L596.454 37.2002C593.572 34.0938 589.96 32.5406 585.619 32.5406C582.25 32.5406 579.387 33.5698 577.029 35.6283C574.709 37.6868 573.286 40.4002 572.762 43.7686H590.334V49.551H572.875C573.511 52.7323 574.971 55.296 577.254 57.2422C579.574 59.1884 582.362 60.1615 585.619 60.1615C589.96 60.1615 593.572 58.6083 596.454 55.5018L601.057 59.993C599.261 62.1264 596.996 63.7544 594.264 64.8772C591.569 66 588.557 66.5614 585.226 66.5614Z" fill="#301C1B"/>
<rect x="639" width="92" height="92" rx="46" fill="#FFEDAB"/>
<path d="M695.836 49.4389H689.099V66.0002H681.97V49.4389H675.233L665.296 66.0002H656.875L669.226 45.5091L657.717 26.7021H665.464L675.064 43.1512H681.97V26.7021H689.099V43.1512H695.892L705.548 26.7021H713.296L701.843 45.5652L714.138 66.0002H705.717L695.836 49.4389Z" fill="#301C1B"/>
<rect x="975" y="1" width="92" height="92" rx="46" fill="#FFEDAB"/>
<path d="M1003.48 27.7021H1010.66V55.6037L1031.77 27.7021H1038.56V67.0002H1031.38V39.1547L1010.27 67.0002H1003.48V27.7021Z" fill="#301C1B"/>
<rect x="1077" y="1" width="92" height="92" rx="46" fill="#FFEDAB"/>
<path d="M1119.9 27.7021H1127.09V67.0002H1119.9V27.7021Z" fill="#301C1B"/>
<rect x="1179" y="1" width="92" height="92" rx="46" fill="#FFEDAB"/>
<path d="M1221.31 29.7023H1228.61V69.0003H1221.31V29.7023ZM1219.52 25.8847C1218.54 25.8847 1217.74 25.5666 1217.1 24.9304C1216.47 24.2941 1216.15 23.4894 1216.15 22.5163C1216.15 21.5058 1216.47 20.6824 1217.1 20.0462C1217.74 19.4099 1218.54 19.0918 1219.52 19.0918C1220.49 19.0918 1221.29 19.4099 1221.93 20.0462C1222.57 20.6824 1222.89 21.5058 1222.89 22.5163C1222.89 23.4894 1222.57 24.2941 1221.93 24.9304C1221.29 25.5666 1220.49 25.8847 1219.52 25.8847ZM1230.41 25.8847C1229.43 25.8847 1228.63 25.5666 1227.99 24.9304C1227.36 24.2941 1227.04 23.4894 1227.04 22.5163C1227.04 21.5058 1227.36 20.6824 1227.99 20.0462C1228.63 19.4099 1229.43 19.0918 1230.41 19.0918C1231.38 19.0918 1232.19 19.4099 1232.82 20.0462C1233.46 20.6824 1233.78 21.5058 1233.78 22.5163C1233.78 23.4894 1233.46 24.2941 1232.82 24.9304C1232.19 25.5666 1231.38 25.8847 1230.41 25.8847Z" fill="#301C1B"/>
<rect x="1281" y="1" width="92" height="92" rx="46" fill="#FFEDAB"/>
<path d="M1309.48 30.7017H1316.66V58.6033L1337.77 30.7017H1344.56V69.9997H1337.38V42.1543L1316.27 69.9997H1309.48V30.7017ZM1326.94 28.0632C1323.57 28.0632 1321.02 27.3708 1319.3 25.986C1317.62 24.6012 1316.76 22.5801 1316.72 19.9229H1321.83C1321.86 21.3076 1322.31 22.3743 1323.17 23.1228C1324.04 23.8714 1325.29 24.2456 1326.94 24.2456C1328.55 24.2456 1329.8 23.8714 1330.7 23.1228C1331.63 22.3743 1332.12 21.3076 1332.16 19.9229H1337.21C1337.17 22.5427 1336.27 24.5638 1334.52 25.986C1332.79 27.3708 1330.27 28.0632 1326.94 28.0632Z" fill="#301C1B"/>
<rect x="1383" y="1" width="92" height="92" rx="46" fill="#FFEDAB"/>
<path d="M1429.23 50.4389H1421.93V67.0002H1414.74V27.7021H1421.93V44.1512H1429.45L1440.74 27.7021H1448.48L1435.07 46.7336L1448.99 67.0002H1440.74L1429.23 50.4389Z" fill="#301C1B"/>
<rect x="-3" width="92" height="92" rx="46" fill="#FFEDAB"/>
<path d="M45.4768 34.684C48.3961 34.684 50.9972 35.3203 53.2803 36.5928C55.6007 37.8653 57.4159 39.6618 58.7259 41.9822C60.0358 44.3027 60.6908 46.9787 60.6908 50.0103C60.6908 53.0418 60.0358 55.7365 58.7259 58.0944C57.4159 60.4149 55.6007 62.2113 53.2803 63.4839C50.9972 64.7564 48.3961 65.3926 45.4768 65.3926C43.4183 65.3926 41.5283 65.0371 39.8067 64.326C38.1225 63.6148 36.7003 62.5482 35.54 61.126V64.9996H28.8594V23.3438H35.8769V38.67C37.0745 37.36 38.478 36.3682 40.0874 35.6946C41.7341 35.0209 43.5306 34.684 45.4768 34.684ZM44.6909 59.3856C47.2733 59.3856 49.3879 58.5248 51.0347 56.8032C52.7189 55.0816 53.561 52.8173 53.561 50.0103C53.561 47.2033 52.7189 44.9389 51.0347 43.2173C49.3879 41.4957 47.2733 40.6349 44.6909 40.6349C43.0067 40.6349 41.4909 41.0279 40.1435 41.8138C38.7962 42.5623 37.7295 43.6477 36.9435 45.0699C36.1576 46.4921 35.7646 48.1389 35.7646 50.0103C35.7646 51.8816 36.1576 53.5284 36.9435 54.9506C37.7295 56.3728 38.7962 57.4769 40.1435 58.2628C41.4909 59.0114 43.0067 59.3856 44.6909 59.3856Z" fill="#301C1B"/>
<rect x="99" width="92" height="92" rx="46" fill="#FFEDAB"/>
<path d="M146.049 61.3932C142.942 61.3932 140.154 60.7382 137.684 59.4283C135.214 58.1183 133.286 56.3031 131.901 53.9827C130.517 51.6248 129.824 48.9675 129.824 46.0108C129.824 43.0541 130.517 40.4155 131.901 38.0951C133.286 35.7746 135.195 33.9594 137.628 32.6495C140.098 31.3395 142.905 30.6846 146.049 30.6846C149.005 30.6846 151.588 31.2834 153.796 32.4811C156.042 33.6787 157.726 35.4003 158.849 37.6459L153.459 40.7898C152.598 39.405 151.513 38.3758 150.203 37.7021C148.931 36.991 147.527 36.6354 145.993 36.6354C143.373 36.6354 141.202 37.4962 139.48 39.2179C137.759 40.9021 136.898 43.1664 136.898 46.0108C136.898 48.8552 137.74 51.1382 139.424 52.8599C141.146 54.5441 143.335 55.3862 145.993 55.3862C147.527 55.3862 148.931 55.0493 150.203 54.3757C151.513 53.6645 152.598 52.6166 153.459 51.2318L158.849 54.3757C157.688 56.6213 155.985 58.3616 153.74 59.5967C151.532 60.7943 148.968 61.3932 146.049 61.3932Z" fill="#301C1B"/>
</svg>
