<svg width="135" height="171" viewBox="0 0 135 171" fill="none" xmlns="http://www.w3.org/2000/svg">
<path d="M67.3379 0C104.528 0 134.677 38.2797 134.677 85.5C134.677 132.72 104.528 171 67.3379 171C30.1482 171 0 132.72 0 85.5C0 38.2798 30.1482 0.00023562 67.3379 0ZM73.9941 38.3184C71.8956 31.8757 62.7812 31.8757 60.6826 38.3184L52.2549 64.1924C51.6253 66.1255 50.1867 67.6895 48.3125 68.4775L23.1729 79.0469C17.4567 81.45 17.4567 89.55 23.1729 91.9531L48.3125 102.522C50.1867 103.31 51.6253 104.874 52.2549 106.808L60.6826 132.682C62.7812 139.124 71.8956 139.124 73.9941 132.682L82.4209 106.808C83.0505 104.874 84.49 103.31 86.3643 102.522L111.504 91.9531C117.22 89.55 117.22 81.45 111.504 79.0469L86.3643 68.4775C84.49 67.6896 83.0505 66.1256 82.4209 64.1924L73.9941 38.3184Z" fill="#301C1B"/>
<path d="M60.6821 38.3191C62.7805 31.8761 71.8954 31.876 73.9938 38.319L82.4208 64.1932C83.0505 66.1265 84.4895 67.6904 86.3638 68.4784L111.504 79.0475C117.22 81.4507 117.22 89.5502 111.504 91.9534L86.3638 102.523C84.4895 103.31 83.0505 104.874 82.4208 106.808L73.9938 132.682C71.8954 139.125 62.7805 139.125 60.6821 132.682L52.2551 106.808C51.6254 104.874 50.1864 103.31 48.3121 102.523L23.1722 91.9534C17.4561 89.5502 17.4561 81.4507 23.1722 79.0475L48.3121 68.4784C50.1864 67.6904 51.6254 66.1265 52.2551 64.1932L60.6821 38.3191Z" fill="#FFEDAB"/>
</svg>
