<svg width="141" height="179" viewBox="0 0 141 179" fill="none" xmlns="http://www.w3.org/2000/svg">
<path d="M70 3.53906C107.003 3.53906 138 41.8187 138 89.0391C138 136.259 106.003 174.539 69 174.539C31.9969 174.539 2 136.259 2 89.0391C1.99999 41.8187 32.9969 3.53906 70 3.53906Z" fill="#FFEDAB"/>
<path d="M70.2607 0C109.065 0 140.522 39.9409 140.522 89.2109C140.522 138.481 109.065 178.422 70.2607 178.422C31.4568 178.422 2.70229e-06 138.481 0 89.2109C0 39.9411 31.4568 0.000298454 70.2607 0ZM100.692 78.3359C105.712 66.0334 93.4393 53.7603 81.1367 58.7803L75 61.2852C70.9661 62.9312 66.4155 62.7418 62.5322 60.7666L61.4248 60.2031C48.4827 53.6202 34.6714 67.431 41.2539 80.373L41.8174 81.4814C43.7925 85.3646 43.9818 89.9145 42.3359 93.9482L39.832 100.086C34.8121 112.388 47.0843 124.661 59.3867 119.642L65.5244 117.137C69.5583 115.491 74.1089 115.68 77.9922 117.655L79.0996 118.219C92.0417 124.802 105.853 110.991 99.2705 98.0488L98.707 96.9404C96.7319 93.0572 96.5426 88.5075 98.1885 84.4736L100.692 78.3359Z" fill="#301C1B"/>
</svg>
