<svg width="134" height="177" viewBox="0 0 134 177" fill="none" xmlns="http://www.w3.org/2000/svg">
<path d="M67 0C104.003 -1.61746e-06 134 39.6228 134 88.5C134 137.377 104.003 177 67 177C29.9969 177 2.13649e-06 137.377 0 88.5C-2.13649e-06 39.6228 29.9969 1.61746e-06 67 0Z" fill="#FFEDAB"/>
<path d="M74.4996 0.500019C93.9997 3.50002 108.865 15.7906 119.509 33.5296C130.153 51.2686 135.246 73.7203 133.742 96.2677C132.238 118.815 124.251 139.744 111.423 154.752C98.5945 169.759 81.9008 177.703 64.7743 176.951C47.6478 176.199 31.3904 166.807 19.3453 150.708C7.30015 134.608 0.382912 113.025 0.015997 90.3949C-0.350918 67.7653 5.86039 45.8101 17.3726 29.0441C28.8849 12.2781 42.9132 2.22002 59.9996 0.50002L62.4996 43C53.6615 43.8897 47.2849 49.0734 41.33 57.7458C35.3752 66.4182 32.1623 77.7747 32.3521 89.4802C32.5419 101.186 36.1199 112.35 42.3504 120.678C48.5809 129.005 56.9902 133.863 65.849 134.252C74.7079 134.641 83.3429 130.532 89.9784 122.769C96.6138 115.007 100.745 104.181 101.523 92.5179C102.301 80.855 99.6666 69.2416 94.1611 60.066C88.6555 50.8903 79.2735 44.6632 70.4996 43L74.4996 0.500019Z" fill="#301C1B"/>
</svg>
