<svg width="141" height="179" viewBox="0 0 141 179" fill="none" xmlns="http://www.w3.org/2000/svg">
<path d="M70.5 -3.08165e-06C108.863 -4.75857e-06 141 40.0705 141 89.5C141 138.929 107.863 178.5 69.5 178.5C34.5 178.5 -1.72968e-06 138.929 -3.89031e-06 89.5C-6.05095e-06 40.0705 32.1365 -1.40473e-06 70.5 -3.08165e-06Z" fill="#FFEDAB"/>
<path d="M81.04 1C114.8 7.54846 140.662 44.5754 140.662 89.2715C140.662 134.225 114.501 171.418 80.4561 177.65V135.381C80.4561 129.306 75.5311 124.381 69.4561 124.381C63.3809 124.381 58.4561 129.306 58.4561 135.381V177.302C25.2687 170.136 0 133.451 0 89.2715C1.16129e-05 44.8329 25.5654 7.97633 59.04 1.11719V56.5869C59.0401 62.662 63.965 67.5869 70.04 67.5869C76.1148 67.5866 81.0399 62.6618 81.04 56.5869V1Z" fill="#301C1B"/>
</svg>
