<svg width="135" height="171" viewBox="0 0 135 171" fill="none" xmlns="http://www.w3.org/2000/svg">
<path d="M60.8588 38.4362C62.9572 31.9933 72.0722 31.9932 74.1706 38.4362L82.5976 64.3104C83.2272 66.2437 84.6663 67.8076 86.5406 68.5956L111.68 79.1647C117.397 81.5679 117.397 89.6674 111.68 92.0706L86.5406 102.64C84.6663 103.428 83.2272 104.992 82.5976 106.925L74.1706 132.799C72.0722 139.242 62.9572 139.242 60.8588 132.799L52.4318 106.925C51.8022 104.992 50.3631 103.428 48.4888 102.64L23.349 92.0706C17.6329 89.6674 17.6328 81.5679 23.349 79.1647L48.4888 68.5956C50.3631 67.8076 51.8022 66.2437 52.4318 64.3104L60.8588 38.4362Z" fill="#FFEDAB"/>
<path d="M67.3379 0C104.528 8.75277e-05 134.676 38.28 134.676 85.5C134.676 132.72 104.528 170.999 67.3379 170.999C30.1482 170.999 1.57761e-05 132.72 0 85.5C0 38.2799 30.1482 0 67.3379 0ZM76.8457 47.0771C73.8477 37.8734 60.827 37.8733 57.8291 47.0771L52.6797 62.8887C51.7801 65.6503 49.7243 67.8841 47.0469 69.0098L29.75 76.2812C21.5844 79.7144 21.5845 91.2855 29.75 94.7188L47.0469 101.99C49.7244 103.116 51.7802 105.351 52.6797 108.112L57.8291 123.923C60.8268 133.127 73.8479 133.127 76.8457 123.923L81.9951 108.112C82.8946 105.351 84.9506 103.116 87.6279 101.99L104.925 94.7188C113.091 91.2857 113.091 79.7143 104.925 76.2812L87.6279 69.0098C84.9507 67.884 82.8946 65.6502 81.9951 62.8887L76.8457 47.0771Z" fill="#301C1B"/>
</svg>
