<svg width="136" height="172" viewBox="0 0 136 172" fill="none" xmlns="http://www.w3.org/2000/svg">
<path d="M67.5059 0C104.789 0 135.013 38.3757 135.013 85.7139C135.012 133.052 104.788 171.427 67.5059 171.427C30.2235 171.426 0.000207859 133.052 0 85.7139C0 38.3759 30.2234 0.000293216 67.5059 0ZM68.3047 38.0947C62.2296 38.0947 57.3047 43.0196 57.3047 49.0947V121.771C57.3047 127.847 62.2296 132.771 68.3047 132.771C74.3798 132.771 79.3047 127.847 79.3047 121.771V49.0947C79.3047 43.0196 74.3798 38.0947 68.3047 38.0947Z" fill="#301C1B"/>
<line x1="68.3047" y1="49.0947" x2="68.3047" y2="121.772" stroke="#FFEDAB" stroke-width="22" stroke-linecap="round"/>
</svg>
