<svg width="144" height="177" viewBox="0 0 144 177" fill="none" xmlns="http://www.w3.org/2000/svg">
<path d="M72 -2.97237e-06C109.003 -4.58983e-06 140 38.2796 140 85.5C140 132.72 108.003 171 71 171C33.9969 171 4 132.72 4 85.5C3.99999 38.2797 34.9969 -1.35492e-06 72 -2.97237e-06Z" fill="#FFEDAB"/>
<path d="M82.2277 0.897448C100.456 4.11275 116.989 15.7906 128.427 33.5296C139.865 51.2686 145.338 73.7203 143.722 96.2678C142.106 118.815 133.522 139.744 119.737 154.752C105.952 169.759 88.0121 177.703 69.6075 176.951C51.2029 176.199 33.7323 166.808 20.7883 150.708C7.84425 134.608 0.410799 113.025 0.016503 90.395C-0.377793 67.7653 6.29704 45.8101 18.6684 29.0441C31.0398 12.2781 48.1673 1.97588 66.5288 0.255882L72 88.5L82.2277 0.897448Z" fill="#301C1B"/>
</svg>
