<svg width="136" height="171" viewBox="0 0 136 171" fill="none" xmlns="http://www.w3.org/2000/svg">
<path d="M68 -2.97237e-06C105.003 -4.58983e-06 136 38.2796 136 85.5C136 132.72 104.003 171 67 171C29.9969 171 -1.67326e-06 132.72 -3.73732e-06 85.5C-5.80139e-06 38.2797 30.9969 -1.35492e-06 68 -2.97237e-06Z" fill="#FFEDAB"/>
<path d="M57.1602 170.287C24.7821 163.907 7.29147e-05 128.36 0 85.4609C0 42.562 24.782 7.01372 57.1602 0.633789V170.287ZM79.1602 0.861328C111 7.81866 135.225 43.0472 135.225 85.4609C135.225 127.875 111 163.102 79.1602 170.06V0.861328Z" fill="#301C1B"/>
</svg>
