<svg width="399" height="398" viewBox="0 0 399 398" fill="none" xmlns="http://www.w3.org/2000/svg">
<path d="M91.6242 173.033C90.0711 177.422 93.8132 206.484 94.3309 214.394C94.8486 222.304 108.987 213.327 108.987 213.327C108.987 213.327 98.1952 189.053 106.28 171.966C114.365 154.88 119.902 155.083 129.978 140.293C139.508 126.307 142.711 119.197 164.456 113.949C186.201 108.7 208.623 113.79 208.623 113.79C208.623 113.79 215.472 134.069 226.862 139.352C238.252 144.636 239.78 130.467 247.718 129.889C255.656 129.311 259.441 130.868 264.724 136.596C270.008 142.324 268.401 155.268 268.268 162.614C268.134 169.96 283.069 201.264 270.735 228.441C258.401 255.618 242.429 292.838 192.407 287.924C142.385 283.01 110.5 236.44 110.5 236.44C110.5 236.44 100.013 226.203 101.34 237.107C102.667 248.011 168.975 333.022 241.778 292.275C314.582 251.528 307.389 188.492 302.85 175.378C298.31 162.263 286.813 145.988 278.862 127.621C270.912 109.255 246.538 102.472 221.554 95.7351C196.57 88.9981 148.233 100.465 134.294 112.479C120.354 124.493 93.1773 168.645 91.6242 173.033Z" fill="#573722"/>
<path d="M60.441 210.454C68.832 212.725 83.3716 213.368 83.3716 213.368C83.3716 213.368 84.6389 202.414 79.9555 193.852C75.2721 185.29 68.3313 183.861 60.6935 192.417C53.0558 200.974 52.0499 208.183 60.441 210.454Z" fill="#573722"/>
<path d="M87.8231 232.273C91.1278 228.046 81.3999 226.125 81.3999 226.125C81.3999 226.125 76.4873 224.894 71.1484 226.872C65.8095 228.849 63.2909 232.369 65.3721 236.773C67.4532 241.177 84.5183 236.5 87.8231 232.273Z" fill="#573722"/>
</svg>
