<svg width="354" height="354" viewBox="0 0 354 354" fill="none" xmlns="http://www.w3.org/2000/svg">
<path fill-rule="evenodd" clip-rule="evenodd" d="M41.5932 165.58C39.0316 119.449 92.3172 83.6928 92.3172 83.6928L96.7686 89.627C96.7686 89.627 58.3211 149.66 62.2325 169.488C62.3069 169.865 62.383 170.252 62.4607 170.646C66.462 190.966 81.0877 244.146 102.26 261.343C123.843 278.874 179.963 287.323 215.306 269.241C254.571 255.865 277.666 256.267 285.637 183.377C285.74 176.201 284.554 189.542 285.637 183.377C286.023 156.625 271.125 129.35 268.378 117.361C263.927 97.9382 231.262 89.0607 220.874 87.5789C216.657 86.9774 212.351 88.1101 208.11 89.2258C201.904 90.8582 195.836 92.4543 190.388 88.5292C188.047 86.8433 186.234 85.4208 184.676 84.1988C180.128 80.6315 177.761 78.7742 170.828 77.0676C165.786 75.8266 163.119 77.7508 160.104 79.9259C157.553 81.7667 154.753 83.7871 150.053 84.2208C139.801 85.1671 114.036 76.6743 114.036 76.6743C114.036 76.6743 146.277 56.7043 153.831 54.4097C161.386 52.1151 173.38 55.7393 181.35 53.9995C184.575 53.2957 186.493 51.7702 188.644 50.0599C191.809 47.5428 195.477 44.6256 204.553 43.3388C219.797 41.1775 256.488 60.8639 277.666 101.461C298.844 142.058 297.659 185.098 295.553 192.58C293.446 200.061 292.362 211.559 291.827 218.137C289.655 244.823 285.747 263.229 221.138 288.023C140.603 318.929 81.3852 261.343 81.3852 261.343C81.3852 261.343 44.1549 211.712 41.5932 165.58Z" fill="#573722"/>
<path d="M122.644 59.1712C119.933 66.183 111.584 69.7027 109.188 68.5627C106.791 67.4226 102.836 59.5741 105.547 52.5623C108.257 45.5505 118.609 39.7238 123.33 41.5488C128.051 43.3738 125.354 52.1594 122.644 59.1712Z" fill="#573722"/>
</svg>
