<svg width="352" height="350" viewBox="0 0 352 350" fill="none" xmlns="http://www.w3.org/2000/svg">
<path d="M84.2419 233.115C129.526 317.31 211.285 292.87 211.285 292.87L204.798 300.379C204.798 300.379 161.591 322.882 99.9822 268.021C38.3732 213.16 67.2054 150.374 77.8767 121.893C88.5481 93.4122 161.563 51.5836 174.301 45.3762C187.038 39.1689 202.995 52.954 210.974 59.8466C218.953 66.7392 254.217 79.9921 264.457 93.755C274.696 107.518 286.58 113.686 277.171 111.295C267.762 108.903 222.26 63.8591 194.865 68.059C167.471 72.2588 154.818 73.6214 135.21 82.0893C115.602 90.5572 38.9582 148.92 84.2419 233.115Z" fill="#573722"/>
<path d="M296.391 133.635C296.391 133.635 291.528 121.239 291.526 139.267C291.523 157.295 303.958 177.053 296.936 201.31C289.914 225.568 261.534 258.42 261.534 258.42C261.534 258.42 254.342 274.335 273.717 256.651C293.092 238.967 300.881 225.207 306.089 200.202C311.298 175.198 296.391 133.635 296.391 133.635Z" fill="#573722"/>
<path d="M84.2419 233.115C129.526 317.31 211.285 292.87 211.285 292.87L204.798 300.379C204.798 300.379 161.591 322.882 99.9822 268.021C38.3732 213.16 67.2054 150.374 77.8767 121.893C88.5481 93.4122 161.563 51.5836 174.301 45.3762C187.038 39.1689 202.995 52.954 210.974 59.8466C218.953 66.7392 254.217 79.9921 264.457 93.755C274.696 107.518 286.58 113.686 277.171 111.295C267.762 108.903 222.26 63.8591 194.865 68.059C167.471 72.2588 154.818 73.6214 135.21 82.0893C115.602 90.5572 38.9582 148.92 84.2419 233.115Z" stroke="#573722" stroke-width="2"/>
<path d="M296.391 133.635C296.391 133.635 291.528 121.239 291.526 139.267C291.523 157.295 303.958 177.053 296.936 201.31C289.914 225.568 261.534 258.42 261.534 258.42C261.534 258.42 254.342 274.335 273.717 256.651C293.092 238.967 300.881 225.207 306.089 200.202C311.298 175.198 296.391 133.635 296.391 133.635Z" stroke="#573722" stroke-width="2"/>
<path d="M144.313 29.808C146.21 31.4469 147.655 33.9647 148.223 36.5243C148.793 39.0948 148.446 41.5197 147.046 43.1408C145.588 44.8288 142.539 46.1994 139.238 46.682C135.921 47.1669 132.769 46.697 131.024 45.1903C129.321 43.7186 128.717 41.0243 129.052 38.0007C129.384 35.0063 130.611 32.0188 132.133 30.2579C135.091 26.8333 140.537 26.5462 144.313 29.808Z" fill="#573722" stroke="#573722" stroke-width="2"/>
<path d="M175.958 29.2805C177.091 30.2589 177.972 31.7617 178.33 33.2795C178.692 34.8115 178.483 36.1593 177.744 37.0147C176.945 37.9393 175.176 38.7383 173.173 39.0026C171.163 39.2679 169.329 38.9413 168.346 38.0923C167.403 37.2775 167.006 35.753 167.182 33.9421C167.357 32.1546 168.069 30.4019 168.932 29.4025C170.568 27.5089 173.702 27.3313 175.958 29.2805Z" fill="#573722" stroke="#573722" stroke-width="2"/>
<path d="M152.55 86.6799C152.58 86.9865 152.369 87.5883 151.613 88.2258C150.899 88.8287 149.848 89.3202 148.63 89.4382C147.38 89.5594 145.679 89.316 144.271 88.8464C143.57 88.6126 142.997 88.3408 142.613 88.072C142.329 87.8736 142.237 87.7386 142.208 87.6894C142.231 87.641 142.297 87.5285 142.491 87.3519C142.808 87.0646 143.313 86.7496 143.964 86.4458C145.264 85.84 146.924 85.3818 148.225 85.2557C149.511 85.1311 150.653 85.3111 151.451 85.6533C152.288 86.0119 152.526 86.4327 152.55 86.6799Z" fill="#573722" stroke="#573722" stroke-width="2"/>
</svg>
