<svg width="1017" height="322" viewBox="0 0 1017 322" fill="none" xmlns="http://www.w3.org/2000/svg">
<path d="M92.283 49H1017L951.34 322H31L92.283 49Z" fill="#573722"/>
<path d="M61.283 0H986L920.34 258H0L61.283 0Z" fill="#FFEDAB"/>
<path d="M182.8 91L167.62 168H143.97L150.79 132.91L129.12 161.07H117.68L105.8 133.35L98.87 168H75.22L90.62 91H111.74L128.46 131.92L160.69 91H182.8ZM223.511 169.76C215.665 169.76 208.771 168.33 202.831 165.47C196.965 162.537 192.418 158.467 189.191 153.26C186.038 148.053 184.461 142.077 184.461 135.33C184.461 126.383 186.515 118.427 190.621 111.46C194.801 104.42 200.558 98.9567 207.891 95.07C215.298 91.1833 223.658 89.24 232.971 89.24C240.818 89.24 247.675 90.7067 253.541 93.64C259.481 96.5 264.028 100.533 267.181 105.74C270.408 110.947 272.021 116.923 272.021 123.67C272.021 132.617 269.931 140.61 265.751 147.65C261.645 154.617 255.888 160.043 248.481 163.93C241.148 167.817 232.825 169.76 223.511 169.76ZM225.711 148.75C229.818 148.75 233.375 147.687 236.381 145.56C239.461 143.433 241.808 140.573 243.421 136.98C245.035 133.387 245.841 129.463 245.841 125.21C245.841 120.663 244.485 117.033 241.771 114.32C239.131 111.607 235.465 110.25 230.771 110.25C226.665 110.25 223.071 111.313 219.991 113.44C216.985 115.567 214.675 118.427 213.061 122.02C211.448 125.613 210.641 129.537 210.641 133.79C210.641 138.337 211.961 141.967 214.601 144.68C217.315 147.393 221.018 148.75 225.711 148.75ZM364.713 91L349.313 168H327.973L305.863 132.14L298.713 168H273.413L288.813 91H310.153L332.263 126.86L339.413 91H364.713ZM389.872 111.13H367.322L371.392 91H442.452L438.382 111.13H415.832L404.502 168H378.542L389.872 111.13ZM464.374 169.76C457.701 169.76 451.431 169.063 445.564 167.67C439.698 166.203 434.858 164.297 431.044 161.95L441.054 142.81C449.341 147.577 457.994 149.96 467.014 149.96C470.314 149.96 472.844 149.557 474.604 148.75C476.364 147.943 477.244 146.843 477.244 145.45C477.244 144.13 476.328 143.067 474.494 142.26C472.734 141.453 469.911 140.573 466.024 139.62C460.891 138.3 456.638 136.98 453.264 135.66C449.891 134.267 446.921 132.177 444.354 129.39C441.861 126.53 440.614 122.79 440.614 118.17C440.614 112.377 442.154 107.317 445.234 102.99C448.388 98.59 452.898 95.2167 458.764 92.87C464.631 90.45 471.561 89.24 479.554 89.24C485.274 89.24 490.591 89.8267 495.504 91C500.491 92.1 504.781 93.7133 508.374 95.84L499.024 114.76C496.018 112.853 492.681 111.423 489.014 110.47C485.421 109.517 481.718 109.04 477.904 109.04C474.311 109.04 471.524 109.553 469.544 110.58C467.564 111.607 466.574 112.817 466.574 114.21C466.574 115.603 467.454 116.703 469.214 117.51C471.048 118.317 474.018 119.197 478.124 120.15C483.111 121.323 487.291 122.57 490.664 123.89C494.111 125.21 497.081 127.263 499.574 130.05C502.068 132.837 503.314 136.503 503.314 141.05C503.314 146.77 501.738 151.793 498.584 156.12C495.431 160.447 490.921 163.82 485.054 166.24C479.188 168.587 472.294 169.76 464.374 169.76ZM543.049 110.58L541.289 119.6H573.849L570.109 138.3H537.439L535.459 148.42H574.069L570.109 168H506.089L521.489 91H584.079L580.119 110.58H543.049ZM662.053 116.3C662.053 123.12 660.219 129.097 656.553 134.23C652.959 139.29 647.863 143.067 641.263 145.56L654.133 168H627.183L616.293 148.64H609.913L606.063 168H580.103L595.503 91H630.043C640.163 91 648.009 93.2367 653.583 97.71C659.229 102.11 662.053 108.307 662.053 116.3ZM635.763 118.83C635.763 113.623 632.536 111.02 626.083 111.02H617.393L613.763 129.06H624.433C628.026 129.06 630.813 128.18 632.793 126.42C634.773 124.587 635.763 122.057 635.763 118.83ZM744.016 116.3C744.016 123.12 742.182 129.097 738.516 134.23C734.922 139.29 729.826 143.067 723.226 145.56L736.096 168H709.146L698.256 148.64H691.876L688.026 168H662.066L677.466 91H712.006C722.126 91 729.972 93.2367 735.546 97.71C741.192 102.11 744.016 108.307 744.016 116.3ZM717.726 118.83C717.726 113.623 714.499 111.02 708.046 111.02H699.356L695.726 129.06H706.396C709.989 129.06 712.776 128.18 714.756 126.42C716.736 124.587 717.726 122.057 717.726 118.83ZM800.129 154.58H770.759L763.059 168H735.669L784.729 91H810.249L828.509 168H802.659L800.129 154.58ZM796.499 135.88L792.759 116.19L781.429 135.88H796.499ZM856.834 111.13H834.284L838.354 91H909.414L905.344 111.13H882.794L871.464 168H845.504L856.834 111.13Z" fill="#301C1B"/>
</svg>
