<svg width="1440" height="1009" viewBox="0 0 1440 1009" fill="none" xmlns="http://www.w3.org/2000/svg">
<g clip-path="url(#clip0_342_4)">
<rect width="1440" height="1009" fill="#BCD7DE"/>
<rect y="709" width="1565" height="300" fill="#301C1B"/>
<rect x="-152" y="810" width="819" height="110" fill="#573722"/>
<path d="M650.766 844.265L765.14 863.596L667.863 920.306L650.766 844.265Z" fill="#573722"/>
<ellipse cx="201.828" cy="62.8831" rx="201.828" ry="62.8831" transform="matrix(-1 0 0 1 924.485 746)" fill="#FFEDAB"/>
<circle cx="20.3334" cy="20.3334" r="20.3334" transform="matrix(-1 0 0 1 874.781 769.346)" fill="#573722"/>
<circle cx="20.3334" cy="20.3334" r="20.3334" transform="matrix(-1 0 0 1 800.225 812.272)" fill="#573722"/>
<circle cx="20.3334" cy="20.3334" r="20.3334" transform="matrix(-1 0 0 1 740.667 753)" fill="#573722"/>
<circle cx="20.3334" cy="20.3334" r="20.3334" transform="matrix(-1 0 0 1 687.261 812.272)" fill="#573722"/>
<circle cx="20.3334" cy="20.3334" r="20.3334" transform="matrix(-1 0 0 1 615.719 773.111)" fill="#573722"/>
<rect x="1435.27" y="-107" width="326.726" height="609.222" fill="#301C1B"/>
<path d="M1618.94 806.432H1187.67L1187.39 567.17C1187.43 567.233 1187.47 567.295 1187.51 567.358L1207.45 479.489L1267.68 422.842V314.903L1186.98 221.377L1186.68 -39.5884H1617.95L1618.94 806.432ZM1187.51 283.68L1227.38 376.456C1214.79 385.175 1199.7 399.137 1187.21 417.094L1187.05 282.577L1187.51 283.68Z" fill="#573722"/>
<path d="M1068 589.713H1375.23L1338.81 857H1099.13L1068 589.713Z" fill="#573722"/>
<path d="M1383.42 589.713H1219.28V807.636H1345.6L1383.42 589.713Z" fill="#BCD7DE"/>
<path d="M1148.32 688.44H1257.49L1249.61 808.037H1154.62L1148.32 688.44Z" fill="#FFEDAB"/>
<path d="M1068 589.713H1305.83L1288.68 709.31H1081.74L1068 589.713Z" fill="#301C1B"/>
<path d="M1188.24 567.535C1146.9 506.632 1162.03 451.933 1188.24 414.501C1200.86 396.477 1216.04 382.456 1228.72 373.672L1188.24 414.501L1208.04 479.662L1188.24 567.535Z" fill="#301C1B"/>
<rect x="1330.73" y="134.866" width="253.806" height="383.72" fill="#301C1B"/>
<path d="M1330.73 -60.0557H1481.27L1495.3 86.8397L1330.73 317.541V-60.0557Z" fill="#FFEDAB"/>
<path d="M174.283 261H1099L1033.34 534H113L174.283 261Z" fill="#573722"/>
<path d="M143.283 212H1068L1002.34 470H82L143.283 212Z" fill="#FFEDAB"/>
</g>
<defs>
<clipPath id="clip0_342_4">
<rect width="1440" height="1009" fill="white"/>
</clipPath>
</defs>
</svg>
