<svg width="760" height="281" viewBox="0 0 760 281" fill="none" xmlns="http://www.w3.org/2000/svg">
<path d="M39.8648 51.6643L674.797 129.325C683.325 130.368 690.721 135.718 694.38 143.492L730.546 220.319C738.572 237.368 725.568 256.83 706.746 255.939L25.8103 223.722C11.6956 223.054 0.939028 210.83 2.0723 196.745L11.9102 74.4744C13.0501 60.3069 25.7567 49.9387 39.8648 51.6643Z" fill="#FFEDAB"/>
<path d="M56.9298 36.4395C61.9007 34.4194 54.4215 27.9089 54.4215 27.9089C54.4215 27.9089 50.7739 24.3958 45.1594 23.4518C39.545 22.5079 35.608 24.3063 35.2196 29.1618C34.8312 34.0174 51.9589 38.4595 56.9298 36.4395Z" fill="#573722"/>
<path d="M91.9761 41.7202C100.367 43.9911 123.476 50.22 123.476 50.22C123.476 50.22 105.765 19.5509 101.081 10.989C96.398 2.42721 89.4572 0.997756 81.8194 9.55427C74.1817 18.1108 83.585 39.4493 91.9761 41.7202Z" fill="#573722"/>
</svg>
