<svg width="815" height="325" viewBox="0 0 815 325" fill="none" xmlns="http://www.w3.org/2000/svg">
<path d="M47.8107 48.4144L707.518 111.288C715.246 112.024 722.193 116.309 726.32 122.884L780.21 208.734C790.503 225.133 779.052 246.505 759.697 247.017L66.9355 265.355C54.0764 265.696 43.058 256.223 41.4661 243.458L20.6311 76.3955C18.6512 60.5205 31.8848 46.8966 47.8107 48.4144Z" fill="#FFEDAB"/>
<path d="M50.9742 38.7292C59.5993 39.8132 83.3487 42.7739 83.3487 42.7739C83.3487 42.7739 75.8752 24.0245 70.0486 16.1958C64.222 8.36698 42.8266 -1.24923 36.4506 8.28471C30.0747 17.8187 42.3492 37.6452 50.9742 38.7292Z" fill="#573722"/>
<path d="M20.8005 42.1757C18.748 44.5517 12.5992 45.6086 9.99244 43.3567C7.38564 41.1047 8.4229 35.6322 10.4754 33.2562C12.528 30.8802 16.3051 30.7797 18.9119 33.0316C21.5187 35.2835 22.8531 39.7997 20.8005 42.1757Z" fill="#573722"/>
</svg>
