<svg width="796" height="227" viewBox="0 0 796 227" fill="none" xmlns="http://www.w3.org/2000/svg">
<path d="M744.112 42.7447L59.6726 122.353C50.8891 123.374 43.2988 128.96 39.711 137.042L15.6001 191.358C8.26194 207.889 20.3634 226.501 38.45 226.501H747C760.807 226.501 772 215.308 772 201.501V67.5773C772 52.6256 758.963 41.0173 744.112 42.7447Z" fill="#FFEDAB"/>
<path d="M730.719 32.7059C726.846 32.4674 716.181 31.7978 716.181 31.7978C716.181 31.7978 726.652 18.966 729.461 15.34C732.27 11.714 735.434 12.1427 738.018 17.8345C740.601 23.5264 734.593 32.9444 730.719 32.7059Z" fill="#573722"/>
<path d="M763.79 3.66214C771.581 -7.51684 768.032 16.6901 771.971 19.8754C775.91 23.0607 800.293 12.4933 792.502 23.6723C784.711 34.8512 763.377 40.2363 755.448 34.7106C747.52 29.185 755.999 14.8411 763.79 3.66214Z" fill="#573722"/>
</svg>
