<svg width="1440" height="300" viewBox="0 0 1440 300" fill="none" xmlns="http://www.w3.org/2000/svg">
<rect width="1565" height="300" fill="#301C1B"/>
<rect x="-152" y="101" width="819" height="110" fill="#573722"/>
<path d="M650.766 135.265L765.14 154.596L667.863 211.306L650.766 135.265Z" fill="#573722"/>
<ellipse cx="201.828" cy="62.8831" rx="201.828" ry="62.8831" transform="matrix(-1 0 0 1 924.485 37)" fill="#FFEDAB"/>
<circle cx="20.3334" cy="20.3334" r="20.3334" transform="matrix(-1 0 0 1 874.781 60.3462)" fill="#573722"/>
<circle cx="20.3334" cy="20.3334" r="20.3334" transform="matrix(-1 0 0 1 800.225 103.272)" fill="#573722"/>
<circle cx="20.3334" cy="20.3334" r="20.3334" transform="matrix(-1 0 0 1 740.667 44)" fill="#573722"/>
<circle cx="20.3334" cy="20.3334" r="20.3334" transform="matrix(-1 0 0 1 687.261 103.272)" fill="#573722"/>
<circle cx="20.3334" cy="20.3334" r="20.3334" transform="matrix(-1 0 0 1 615.719 64.1113)" fill="#573722"/>
</svg>
