<svg width="1440" height="903" viewBox="0 0 1440 903" fill="none" xmlns="http://www.w3.org/2000/svg">
<rect x="-43" y="613" width="1565" height="335" fill="#301C1B"/>
<rect x="-23" y="652" width="469" height="91" fill="#573722"/>
<rect x="405.493" y="46.1445" width="108.404" height="48.3423" rx="24.1712" transform="rotate(90 405.493 46.1445)" fill="#301C1B"/>
<circle cx="380.954" cy="41.3839" r="41.3839" fill="#573722"/>
<rect x="228.971" y="95.9521" width="301.041" height="71.0486" rx="35.5243" fill="#573722"/>
<rect x="215.787" y="131.843" width="327.409" height="549.345" fill="#301C1B"/>
<rect x="450.905" y="190.439" width="62.9915" height="317.155" fill="#FFEDAB"/>
<path d="M92 501.002V297.378C92 249.644 130.696 210.948 178.43 210.948V252.698C153.754 252.698 133.75 272.702 133.75 297.378V501.002C133.75 525.678 153.754 545.682 178.43 545.682H305.146C329.822 545.682 349.826 525.678 349.826 501.002V297.378C349.826 272.702 329.822 252.698 305.146 252.698V210.948C352.88 210.948 391.576 249.644 391.576 297.378V501.002C391.576 548.736 352.88 587.432 305.146 587.432H178.43C130.696 587.432 92 548.736 92 501.002ZM305.146 210.948V252.698H178.43V210.948H305.146Z" fill="#301C1B"/>
<rect x="349.826" y="190.439" width="62.9915" height="317.155" fill="#FFEDAB"/>
<rect x="248.747" y="185.312" width="62.9915" height="317.155" fill="#FFEDAB"/>
<rect x="248.747" y="410.178" width="62.9915" height="161.141" fill="#573722"/>
<rect x="349.826" y="470.239" width="62.9915" height="101.079" fill="#573722"/>
<rect x="450.905" y="410.178" width="62.9915" height="171.395" fill="#573722"/>
<path d="M411.968 682.195C354.401 706.331 326.979 748.122 314.293 777.404C307.028 794.172 320.367 810.367 338.641 810.367H439.466L411.968 682.195Z" fill="#573722"/>
<path d="M823.345 682.195C880.912 706.331 908.334 748.122 921.02 777.404C928.285 794.172 914.946 810.367 896.672 810.367H795.847L823.345 682.195Z" fill="#573722"/>
<path d="M834.895 701.994C869.356 716.426 888.385 739.885 898.728 759.182C907.361 775.29 894.102 791.61 875.826 791.61H815.646L834.895 701.994Z" fill="#FFEDAB"/>
<path d="M399.377 701.994C364.916 716.426 345.887 739.885 335.544 759.182C326.911 775.29 340.17 791.61 358.446 791.61H418.626L399.377 701.994Z" fill="#FFEDAB"/>
<path d="M406.121 668.966L435.803 814.952C437.603 823.805 445.388 830.166 454.422 830.166H584.311L550.406 628.009C499.925 629.512 406.121 668.966 406.121 668.966Z" fill="#573722"/>
<path d="M430.088 667.367L450.956 770.139C452.754 778.995 460.54 785.359 469.576 785.359H560.344L535.56 637.388C498.659 638.488 430.088 667.367 430.088 667.367Z" fill="#FFEDAB"/>
<path d="M828.15 668.966L798.647 814.93C796.855 823.794 789.066 830.166 780.023 830.166H651.002L684.709 628.009C734.895 629.512 828.15 668.966 828.15 668.966Z" fill="#573722"/>
<path d="M815.645 667.367L794.777 770.139C792.979 778.995 785.193 785.359 776.157 785.359H685.389L710.173 637.388C747.075 638.488 815.645 667.367 815.645 667.367Z" fill="#FFEDAB"/>
<path d="M539.503 612.61L575.259 823.516C577.134 834.577 586.716 842.671 597.935 842.671H658.335C670.862 842.671 681.085 832.646 681.33 820.121L685.39 612.61C624.689 598.97 593.204 600.65 539.503 612.61Z" fill="#573722"/>
<path d="M560 628.333L576.671 736.503C578.4 747.721 588.053 756 599.403 756H637.874C650.058 756 660.128 746.499 660.836 734.335L667 628.333C620.815 620.764 600.859 621.696 560 628.333Z" fill="#FFEDAB"/>
</svg>
