<svg width="427" height="421" viewBox="0 0 427 421" fill="none" xmlns="http://www.w3.org/2000/svg">
<path d="M147.056 74.4419C75.8461 115.555 51.4477 206.611 92.5608 277.821C106.79 302.466 127.003 321.502 150.303 334.158L134.652 392.569L177.951 404.17L192.617 349.434C226.766 356.201 263.422 351.09 295.94 332.316C367.15 291.203 391.548 200.147 350.435 128.937C309.322 57.7271 218.266 33.3288 147.056 74.4419Z" fill="#BCD7DE"/>
<circle cx="116.822" cy="116.822" r="116.822" transform="matrix(-0.866025 0.5 0.5 0.866025 264.86 45.5771)" fill="#301C1B"/>
<circle cx="70.0196" cy="70.0196" r="70.0196" transform="matrix(-0.866025 0.5 0.5 0.866025 255.167 65.6411)" fill="#573722"/>
<circle cx="21.7429" cy="21.7429" r="21.7429" transform="matrix(-0.866025 0.5 0.5 0.866025 170.728 155.244)" fill="#573722"/>
<circle cx="15.8465" cy="15.8465" r="15.8465" transform="matrix(-0.866025 0.5 0.5 0.866025 299.173 155.129)" fill="#573722"/>
<path d="M225.856 236.896C218.773 236.896 212.416 235.403 206.784 232.416C201.152 229.429 196.757 225.291 193.6 220C190.443 214.624 188.864 208.565 188.864 201.824C188.864 195.083 190.443 189.067 193.6 183.776C196.757 178.485 201.109 174.347 206.656 171.36C212.288 168.373 218.688 166.88 225.856 166.88C232.597 166.88 238.485 168.245 243.52 170.976C248.64 173.707 252.48 177.632 255.04 182.752L242.752 189.92C240.789 186.763 238.315 184.416 235.328 182.88C232.427 181.259 229.227 180.448 225.728 180.448C219.755 180.448 214.805 182.411 210.88 186.336C206.955 190.176 204.992 195.339 204.992 201.824C204.992 208.309 206.912 213.515 210.752 217.44C214.677 221.28 219.669 223.2 225.728 223.2C229.227 223.2 232.427 222.432 235.328 220.896C238.315 219.275 240.789 216.885 242.752 213.728L255.04 220.896C252.395 226.016 248.512 229.984 243.392 232.8C238.357 235.531 232.512 236.896 225.856 236.896Z" fill="#FFEDAB"/>
</svg>
