<svg width="294" height="311" viewBox="0 0 294 311" fill="none" xmlns="http://www.w3.org/2000/svg">
<path d="M293.738 145.291C293.738 225.533 228.689 290.583 148.446 290.583C120.675 290.583 94.7249 282.789 72.6601 269.272L30.9326 311L-1.22422e-05 280.068L39.1035 240.965C16.7219 215.406 3.15527 181.933 3.15527 145.291C3.1555 65.049 68.2043 0.000221106 148.446 -6.35091e-06C228.688 -2.84342e-06 293.738 65.0489 293.738 145.291Z" fill="#BCD7DE"/>
<circle cx="148.087" cy="145.651" r="114.004" transform="rotate(90 148.087 145.651)" fill="#301C1B"/>
<ellipse cx="147.451" cy="146.014" rx="92" ry="92" transform="rotate(90 147.451 146.014)" fill="#573722"/>
<ellipse cx="146.951" cy="145.014" rx="77" ry="76.5" transform="rotate(90 146.951 145.014)" fill="#FFEDAB"/>
<line x1="194.789" y1="163.21" x2="209.439" y2="136.211" stroke="#301C1B" stroke-width="11" stroke-linecap="round"/>
<line x1="183.098" y1="183.12" x2="175.156" y2="195.168" stroke="#301C1B" stroke-width="11" stroke-linecap="round"/>
<line x1="187.48" y1="104.056" x2="178.004" y2="100.175" stroke="#301C1B" stroke-width="11" stroke-linecap="round"/>
<line x1="94.3862" y1="137.737" x2="91.7359" y2="147.627" stroke="#301C1B" stroke-width="11" stroke-linecap="round"/>
<line x1="136.342" y1="199.845" x2="112.279" y2="191.053" stroke="#301C1B" stroke-width="11" stroke-linecap="round"/>
<line x1="112.045" y1="97.9641" x2="134.779" y2="86.1532" stroke="#301C1B" stroke-width="11" stroke-linecap="round"/>
<path d="M146.216 176.896C139.304 176.896 133.075 175.403 127.528 172.416C121.982 169.429 117.63 165.291 114.472 160C111.4 154.624 109.864 148.565 109.864 141.824C109.864 135.083 111.4 129.067 114.472 123.776C117.63 118.485 121.982 114.347 127.528 111.36C133.075 108.373 139.304 106.88 146.216 106.88C153.214 106.88 159.486 108.373 165.032 111.36C170.579 114.347 174.888 118.485 177.96 123.776C181.118 129.067 182.696 135.083 182.696 141.824C182.696 148.565 181.118 154.624 177.96 160C174.888 165.291 170.579 169.429 165.032 172.416C159.486 175.403 153.214 176.896 146.216 176.896ZM146.216 163.2C152.104 163.2 156.968 161.237 160.808 157.312C164.648 153.387 166.568 148.224 166.568 141.824C166.568 135.424 164.648 130.261 160.808 126.336C156.968 122.411 152.104 120.448 146.216 120.448C140.328 120.448 135.464 122.411 131.624 126.336C127.87 130.261 125.992 135.424 125.992 141.824C125.992 148.224 127.87 153.387 131.624 157.312C135.464 161.237 140.328 163.2 146.216 163.2Z" fill="#301C1B"/>
</svg>
