<svg width="295" height="302" viewBox="0 0 295 302" fill="none" xmlns="http://www.w3.org/2000/svg">
<circle cx="143.646" cy="157.442" r="143.646" transform="rotate(-90 143.646 157.442)" fill="#BCD7DE"/>
<rect x="163.776" y="158.864" width="40.2462" height="184.421" transform="rotate(-135 163.776 158.864)" fill="#BCD7DE"/>
<circle cx="141.868" cy="158.508" r="112.712" transform="rotate(-90 141.868 158.508)" fill="#573722"/>
<circle cx="147.557" cy="155.664" r="92.8011" transform="rotate(-90 147.557 155.664)" fill="#FFEDAB"/>
<line x1="60.1362" y1="142.14" x2="100.485" y2="165.436" stroke="#573722" stroke-width="11" stroke-linecap="round"/>
<line x1="88.7896" y1="108.732" x2="102.057" y2="88.6057" stroke="#573722" stroke-width="11" stroke-linecap="round"/>
<line x1="152.141" y1="212.449" x2="169.095" y2="219.394" stroke="#573722" stroke-width="11" stroke-linecap="round"/>
<line x1="207.605" y1="176.142" x2="212.346" y2="158.445" stroke="#573722" stroke-width="11" stroke-linecap="round"/>
<line x1="172.927" y1="98.479" x2="200.895" y2="126.447" stroke="#573722" stroke-width="11" stroke-linecap="round"/>
<line x1="81.2528" y1="192.808" x2="109.221" y2="220.775" stroke="#573722" stroke-width="11" stroke-linecap="round"/>
<path d="M169.176 191.832C167.299 193.368 164.995 194.52 162.264 195.288C159.619 196.056 156.803 196.44 153.816 196.44C146.307 196.44 140.504 194.477 136.408 190.552C132.312 186.627 130.264 180.909 130.264 173.4V140.504H119V127.704H130.264V112.088H146.264V127.704H164.568V140.504H146.264V173.016C146.264 176.344 147.075 178.904 148.696 180.696C150.317 182.403 152.664 183.256 155.736 183.256C159.32 183.256 162.307 182.317 164.696 180.44L169.176 191.832Z" fill="#301C1B"/>
</svg>
