<svg width="320" height="302" viewBox="0 0 320 302" fill="none" xmlns="http://www.w3.org/2000/svg">
<path d="M149.111 0C231.463 0.000107206 298.223 66.7596 298.223 149.111C298.223 177.613 290.223 204.245 276.352 226.89L319.177 269.715L287.432 301.46L247.3 261.328C221.069 284.298 186.717 298.223 149.111 298.223C66.7596 298.223 0.000107234 231.463 0 149.111C0 66.7595 66.7595 0 149.111 0Z" fill="#BCD7DE"/>
<circle cx="150.957" cy="148.742" r="117.001" fill="#301C1B"/>
<circle cx="149.48" cy="145.051" r="92.6408" fill="#573722"/>
<circle cx="150.957" cy="147.266" r="63.852" fill="#FFEDAB"/>
<path d="M148.608 107.88C158.677 107.88 166.357 110.312 171.648 115.176C177.024 119.955 179.712 127.208 179.712 136.936V177H164.608V168.68C162.645 171.667 159.829 173.971 156.16 175.592C152.576 177.128 148.224 177.896 143.104 177.896C137.984 177.896 133.504 177.043 129.664 175.336C125.824 173.544 122.837 171.112 120.704 168.04C118.656 164.883 117.632 161.341 117.632 157.416C117.632 151.272 119.893 146.365 124.416 142.696C129.024 138.941 136.235 137.064 146.048 137.064H163.712V136.04C163.712 131.261 162.261 127.592 159.36 125.032C156.544 122.472 152.32 121.192 146.688 121.192C142.848 121.192 139.051 121.789 135.296 122.984C131.627 124.179 128.512 125.843 125.952 127.976L119.68 116.328C123.264 113.597 127.573 111.507 132.608 110.056C137.643 108.605 142.976 107.88 148.608 107.88ZM146.432 166.248C150.443 166.248 153.984 165.352 157.056 163.56C160.213 161.683 162.432 159.037 163.712 155.624V147.688H147.2C137.984 147.688 133.376 150.717 133.376 156.776C133.376 159.677 134.528 161.981 136.832 163.688C139.136 165.395 142.336 166.248 146.432 166.248Z" fill="#301C1B"/>
</svg>
