<svg width="316" height="298" viewBox="0 0 316 298" fill="none" xmlns="http://www.w3.org/2000/svg">
<path d="M168.113 298C86.7067 298 20.7139 232.006 20.7139 150.6C20.7139 122.426 28.6216 96.0997 42.334 73.7148L0 31.3809L31.3809 0L71.0518 39.6709C96.9813 16.9644 130.939 3.20029 168.113 3.2002C249.52 3.2002 315.513 69.193 315.514 150.6C315.514 232.006 249.52 298 168.113 298Z" fill="#BCD7DE"/>
<circle cx="168.478" cy="150.965" r="115.658" transform="rotate(180 168.478 150.965)" fill="#573722"/>
<circle cx="232.328" cy="199.49" r="11.6752" transform="rotate(180 232.328 199.49)" fill="#301C1B"/>
<circle cx="221.017" cy="218.097" r="21.5262" transform="rotate(180 221.017 218.097)" fill="#301C1B"/>
<circle cx="222.477" cy="114.48" r="21.5262" transform="rotate(180 222.477 114.48)" fill="#301C1B"/>
<circle cx="207.517" cy="165.924" r="14.5941" transform="rotate(180 207.517 165.924)" fill="#301C1B"/>
<circle cx="127.25" cy="210.436" r="22.6208" transform="rotate(180 127.25 210.436)" fill="#301C1B"/>
<circle cx="156.804" cy="89.6698" r="15.6886" transform="rotate(180 156.804 89.6698)" fill="#301C1B"/>
<circle cx="84.1977" cy="170.302" r="20.4317" transform="rotate(180 84.1977 170.302)" fill="#301C1B"/>
<circle cx="84.5628" cy="145.857" r="14.2292" transform="rotate(180 84.5628 145.857)" fill="#301C1B"/>
<circle cx="141.114" cy="156.437" r="8.75643" transform="rotate(180 141.114 156.437)" fill="#301C1B"/>
<circle cx="103.899" cy="95.1425" r="8.75643" transform="rotate(180 103.899 95.1425)" fill="#301C1B"/>
<circle cx="210.072" cy="73.6165" r="9.12129" transform="rotate(180 210.072 73.6165)" fill="#301C1B"/>
<circle cx="150.236" cy="210.071" r="9.12129" transform="rotate(180 150.236 210.071)" fill="#301C1B"/>
<circle cx="262.61" cy="165.559" r="9.12129" transform="rotate(180 262.61 165.559)" fill="#301C1B"/>
<circle cx="183.073" cy="237.07" r="10.5807" transform="rotate(180 183.073 237.07)" fill="#301C1B"/>
<path d="M205.336 110.648V168.632C205.336 192.696 193.048 204.728 168.472 204.728C161.901 204.728 155.672 203.875 149.784 202.168C143.896 200.547 139.032 198.157 135.192 195L142.36 182.968C145.347 185.443 149.101 187.405 153.624 188.856C158.232 190.392 162.883 191.16 167.576 191.16C175.085 191.16 180.589 189.453 184.088 186.04C187.587 182.627 189.336 177.421 189.336 170.424V166.84C186.605 169.827 183.277 172.088 179.352 173.624C175.427 175.16 171.117 175.928 166.424 175.928C159.939 175.928 154.051 174.563 148.76 171.832C143.555 169.016 139.416 165.091 136.344 160.056C133.357 155.021 131.864 149.261 131.864 142.776C131.864 136.291 133.357 130.573 136.344 125.624C139.416 120.589 143.555 116.707 148.76 113.976C154.051 111.245 159.939 109.88 166.424 109.88C171.373 109.88 175.853 110.691 179.864 112.312C183.96 113.933 187.373 116.408 190.104 119.736V110.648H205.336ZM168.856 162.36C174.915 162.36 179.864 160.568 183.704 156.984C187.629 153.315 189.592 148.579 189.592 142.776C189.592 137.059 187.629 132.408 183.704 128.824C179.864 125.24 174.915 123.448 168.856 123.448C162.712 123.448 157.677 125.24 153.752 128.824C149.912 132.408 147.992 137.059 147.992 142.776C147.992 148.579 149.912 153.315 153.752 156.984C157.677 160.568 162.712 162.36 168.856 162.36Z" fill="#FFEDAB"/>
</svg>
