<svg width="317" height="299" viewBox="0 0 317 299" fill="none" xmlns="http://www.w3.org/2000/svg">
<path d="M168.678 0C86.9979 2.47398e-05 20.7832 66.2147 20.7832 147.895C20.7832 176.163 28.7171 202.578 42.4756 225.038L0 267.514L31.4863 299L71.29 259.196C97.3066 281.979 131.379 295.789 168.678 295.789C250.358 295.789 316.572 229.574 316.572 147.895C316.572 66.2147 250.358 0 168.678 0Z" fill="#BCD7DE"/>
<circle cx="116.046" cy="116.046" r="116.046" transform="matrix(-1 0 0 1 285.09 33.6787)" fill="#301C1B"/>
<path d="M181.411 124.131L199.562 75.9062L139.187 94.5968L181.411 124.131Z" fill="#573722"/>
<path d="M199.708 101.297L261.026 93.8435L188.786 40.5008L199.708 101.297Z" fill="#FFEDAB"/>
<path d="M221.992 204.84C219.005 208.339 215.507 210.984 211.496 212.776C207.571 214.568 203.261 215.464 198.568 215.464C192.424 215.464 186.792 214.056 181.672 211.24C176.552 208.509 170.707 203.731 164.136 196.904C155.859 196.221 148.435 193.832 141.864 189.736C135.293 185.555 130.173 180.136 126.504 173.48C122.835 166.739 121 159.272 121 151.08C121 142.376 123.091 134.525 127.272 127.528C131.453 120.445 137.213 114.941 144.552 111.016C151.891 107.005 160.125 105 169.256 105C178.387 105 186.621 107.005 193.96 111.016C201.299 114.941 207.059 120.403 211.24 127.4C215.421 134.397 217.512 142.291 217.512 151.08C217.512 158.163 216.104 164.733 213.288 170.792C210.472 176.765 206.547 181.885 201.512 186.152C196.477 190.333 190.632 193.363 183.976 195.24C186.451 197.885 188.883 199.805 191.272 201C193.661 202.195 196.221 202.792 198.952 202.792C204.84 202.792 209.96 200.403 214.312 195.624L221.992 204.84ZM137.768 151.08C137.768 157.053 139.133 162.472 141.864 167.336C144.595 172.115 148.349 175.869 153.128 178.6C157.907 181.245 163.283 182.568 169.256 182.568C175.229 182.568 180.605 181.245 185.384 178.6C190.163 175.869 193.917 172.115 196.648 167.336C199.379 162.472 200.744 157.053 200.744 151.08C200.744 145.107 199.379 139.731 196.648 134.952C193.917 130.088 190.163 126.333 185.384 123.688C180.605 120.957 175.229 119.592 169.256 119.592C163.283 119.592 157.907 120.957 153.128 123.688C148.349 126.333 144.595 130.088 141.864 134.952C139.133 139.731 137.768 145.107 137.768 151.08Z" fill="#FFEDAB"/>
</svg>
