<svg width="315" height="298" viewBox="0 0 315 298" fill="none" xmlns="http://www.w3.org/2000/svg">
<path d="M147.16 0C228.434 0 294.32 65.8858 294.32 147.16C294.32 175.289 286.426 201.572 272.735 223.921L315 266.186L283.67 297.516L244.064 257.91C218.177 280.58 184.274 294.32 147.16 294.32C65.8858 294.32 0 228.434 0 147.16C5.77262e-05 65.8859 65.8859 5.77412e-05 147.16 0Z" fill="#BCD7DE"/>
<circle cx="148.253" cy="148.982" r="115.47" fill="#301C1B"/>
<circle cx="147.889" cy="144.975" r="69.209" fill="#FFEDAB"/>
<circle cx="189.05" cy="102.356" r="21.4912" fill="#573722"/>
<circle cx="73.2163" cy="159.909" r="15.6631" fill="#573722"/>
<path d="M182.752 146.208C182.752 147.317 182.667 148.896 182.496 150.944H128.864C129.803 155.979 132.235 159.989 136.16 162.976C140.171 165.877 145.12 167.328 151.008 167.328C158.517 167.328 164.704 164.853 169.568 159.904L178.144 169.76C175.072 173.429 171.189 176.203 166.496 178.08C161.803 179.957 156.512 180.896 150.624 180.896C143.115 180.896 136.501 179.403 130.784 176.416C125.067 173.429 120.629 169.291 117.472 164C114.4 158.624 112.864 152.565 112.864 145.824C112.864 139.168 114.357 133.195 117.344 127.904C120.416 122.528 124.64 118.347 130.016 115.36C135.392 112.373 141.451 110.88 148.192 110.88C154.848 110.88 160.779 112.373 165.984 115.36C171.275 118.261 175.371 122.4 178.272 127.776C181.259 133.067 182.752 139.211 182.752 146.208ZM148.192 123.68C143.072 123.68 138.72 125.216 135.136 128.288C131.637 131.275 129.504 135.285 128.736 140.32H167.52C166.837 135.371 164.747 131.36 161.248 128.288C157.749 125.216 153.397 123.68 148.192 123.68Z" fill="#301C1B"/>
</svg>
