<svg width="372" height="384" viewBox="0 0 372 384" fill="none" xmlns="http://www.w3.org/2000/svg">
<path d="M332.18 161.949C310.337 83.5274 229.057 37.6606 150.636 59.5029C123.495 67.0626 100.254 81.7439 82.3695 100.96L30.2302 71.538L8.41999 110.188L57.2805 137.76C42.3641 168.831 38.2158 205.237 48.1902 241.048C70.033 319.469 151.314 365.335 229.735 343.493C308.156 321.65 354.022 240.37 332.18 161.949Z" fill="#BCD7DE"/>
<circle cx="115.658" cy="115.658" r="115.658" transform="matrix(-0.268315 -0.963331 -0.963331 0.268315 330.975 282.723)" fill="#573722"/>
<circle cx="95.2261" cy="95.2261" r="95.2261" transform="matrix(-0.268315 -0.963331 -0.963331 0.268315 318.9 274.724)" fill="#FFEDAB"/>
<circle cx="11.6752" cy="11.6752" r="11.6752" transform="matrix(-0.268315 -0.963331 -0.963331 0.268315 266.783 258.941)" fill="#573722"/>
<circle cx="21.5262" cy="21.5262" r="21.5262" transform="matrix(-0.268315 -0.963331 -0.963331 0.268315 293.806 249.899)" fill="#573722"/>
<circle cx="10.5807" cy="10.5807" r="10.5807" transform="matrix(-0.268315 -0.963331 -0.963331 0.268315 288.42 200.648)" fill="#573722"/>
<path d="M187.616 238.839C182.069 238.839 176.651 238.114 171.36 236.663C166.069 235.213 161.845 233.378 158.688 231.159L164.832 218.999C167.904 221.047 171.573 222.711 175.84 223.991C180.192 225.186 184.459 225.783 188.64 225.783C198.197 225.783 202.976 223.266 202.976 218.231C202.976 215.842 201.739 214.178 199.264 213.239C196.875 212.301 192.992 211.405 187.616 210.551C181.984 209.698 177.376 208.717 173.792 207.607C170.293 206.498 167.221 204.578 164.576 201.847C162.016 199.031 160.736 195.149 160.736 190.199C160.736 183.714 163.424 178.551 168.8 174.711C174.261 170.786 181.6 168.823 190.816 168.823C195.509 168.823 200.203 169.378 204.896 170.487C209.589 171.511 213.429 172.919 216.416 174.711L210.272 186.871C204.469 183.458 197.941 181.751 190.688 181.751C185.995 181.751 182.411 182.477 179.936 183.927C177.547 185.293 176.352 187.127 176.352 189.431C176.352 191.991 177.632 193.826 180.192 194.935C182.837 195.959 186.891 196.941 192.352 197.879C197.813 198.733 202.293 199.714 205.792 200.823C209.291 201.933 212.277 203.81 214.752 206.455C217.312 209.101 218.592 212.855 218.592 217.719C218.592 224.119 215.819 229.239 210.272 233.079C204.725 236.919 197.173 238.839 187.616 238.839Z" fill="#301C1B"/>
</svg>
