<svg width="317" height="299" viewBox="0 0 317 299" fill="none" xmlns="http://www.w3.org/2000/svg">
<path d="M147.895 299C229.574 299 295.789 232.785 295.789 151.105C295.789 122.836 287.855 96.4211 274.097 73.9609L316.571 31.4863L285.085 0L245.281 39.8037C219.265 17.0213 185.193 3.21103 147.895 3.21094C66.2147 3.21094 2.47463e-05 69.4256 0 151.105C0 232.785 66.2147 299 147.895 299Z" fill="#BCD7DE"/>
<circle cx="116.046" cy="116.046" r="116.046" transform="matrix(1 0 0 -1 30.0181 268.25)" fill="#573722"/>
<path d="M146.064 47.1401L93.7543 96.5603L198.374 96.5603L146.064 47.1401Z" fill="#301C1B"/>
<path d="M145.332 100.587L103.801 139.574L186.863 139.574L145.332 100.587Z" fill="#301C1B"/>
<path d="M145.332 146.712L115.214 175.266L175.45 175.266L145.332 146.712Z" fill="#301C1B"/>
<path d="M146.43 180.392L121.702 204.003L171.158 204.003L146.43 180.392Z" fill="#301C1B"/>
<path d="M132.52 220.66L147.895 236.511L147.895 204.808L132.52 220.66Z" fill="#301C1B"/>
<path d="M185.712 171.432V200.232H170.736V185H118V200.232H103.152V171.432H106.352C110.704 171.261 113.648 168.488 115.184 163.112C116.805 157.651 117.872 149.971 118.384 140.072L119.28 116.648H175.6V171.432H185.712ZM132.976 141.224C132.635 149.075 131.995 155.475 131.056 160.424C130.117 165.373 128.411 169.043 125.936 171.432H159.6V130.216H133.36L132.976 141.224Z" fill="#FFEDAB"/>
</svg>
